<?xml version="1.0" encoding="UTF-8" standalone="no"?>
<!-- Created with Inkscape (http://www.inkscape.org/) -->

<svg
   xmlns:dc="http://purl.org/dc/elements/1.1/"
   xmlns:cc="http://creativecommons.org/ns#"
   xmlns:rdf="http://www.w3.org/1999/02/22-rdf-syntax-ns#"
   xmlns:svg="http://www.w3.org/2000/svg"
   xmlns="http://www.w3.org/2000/svg"
   xmlns:sodipodi="http://sodipodi.sourceforge.net/DTD/sodipodi-0.dtd"
   xmlns:inkscape="http://www.inkscape.org/namespaces/inkscape"
   width="211.12852mm"
   height="212.08012mm"
   viewBox="0 0 211.12852 212.08012"
   version="1.1"
   id="svg8"
   inkscape:version="0.92.4 (5da689c313, 2019-01-14)"
   sodipodi:docname="landscape.svg">
  <defs
     id="defs2">
    <linearGradient
       id="linearGradient845"
       spreadMethod="pad"
       gradientTransform="matrix(0,576.67548,576.67548,0,400.33334,222.21391)"
       gradientUnits="userSpaceOnUse"
       y2="0"
       x2="1"
       y1="0"
       x1="0">
      <stop
         id="stop837"
         offset="0"
         style="stop-opacity:1;stop-color:#f0c57b" />
      <stop
         id="stop839"
         offset="0.32772327"
         style="stop-opacity:1;stop-color:#f0c57b" />
      <stop
         id="stop841"
         offset="0.995633"
         style="stop-opacity:1;stop-color:#f26868" />
      <stop
         id="stop843"
         offset="1"
         style="stop-opacity:1;stop-color:#f26868" />
    </linearGradient>
    <linearGradient
       id="linearGradient871"
       spreadMethod="pad"
       gradientTransform="matrix(0,-189.28285,-189.28285,0,400,169)"
       gradientUnits="userSpaceOnUse"
       y2="0"
       x2="1"
       y1="0"
       x1="0">
      <stop
         id="stop863"
         offset="0"
         style="stop-opacity:1;stop-color:#f0c57b" />
      <stop
         id="stop865"
         offset="0.23129015"
         style="stop-opacity:1;stop-color:#f0c57b" />
      <stop
         id="stop867"
         offset="0.995633"
         style="stop-opacity:1;stop-color:#f26868" />
      <stop
         id="stop869"
         offset="1"
         style="stop-opacity:1;stop-color:#f26868" />
    </linearGradient>
    <clipPath
       id="clipPath881"
       clipPathUnits="userSpaceOnUse">
      <path
         inkscape:connector-curvature="0"
         id="path879"
         d="M 0,800 H 800 V 0 H 0 Z" />
    </clipPath>
    <clipPath
       id="clipPath889"
       clipPathUnits="userSpaceOnUse">
      <path
         inkscape:connector-curvature="0"
         id="path887"
         d="M 1.99985,684.126 H 801.744 V 488.643 H 1.99985 Z" />
    </clipPath>
    <clipPath
       id="clipPath893"
       clipPathUnits="userSpaceOnUse">
      <path
         inkscape:connector-curvature="0"
         id="path891"
         d="m 798.55,660.726 c -13.902,45.356 -102.015,14.353 -125.802,-6.028 -17.433,-14.936 -36.282,-36.936 -58.19,-30.078 -7.691,2.408 -13.783,8.155 -20.435,12.705 -25.361,17.345 -61.878,16.27 -86.175,-2.538 -15.191,-11.76 -27.778,-30.381 -46.968,-31.29 -10.637,-0.503 -20.758,4.885 -31.398,5.302 -25.236,0.989 -42.338,-24.304 -63.554,-38.004 -23.575,-15.225 -44.414,-10.386 -69.843,-6.307 -22.558,3.619 -46.339,0.393 -69.145,-1.944 -31.917,-3.27 -66.156,-15.339 -98.04,-15.372 -6,0 -127,-20 -127,-20 0,0 95,-15.993 145,-10.996 50,4.996 25.273,5.386 70.801,0 45.529,-5.387 96.711,-19.004 116.955,-17.004 20.244,2 -10.526,-0.398 62.859,-0.199 73.385,0.199 78.526,-10.936 150.973,-10.304 72.447,0.632 79.597,20.51 124.005,27.507 C 717,523.172 800,513.482 800,513.482 v 80.656 c 0,15.03 4.755,46.263 -1.438,66.548 -0.004,0.013 -0.008,0.027 -0.012,0.04" />
    </clipPath>
    <linearGradient
       id="linearGradient905"
       spreadMethod="pad"
       gradientTransform="matrix(0,-126.22779,126.22779,0,401.87198,643.12048)"
       gradientUnits="userSpaceOnUse"
       y2="0"
       x2="1"
       y1="0"
       x1="0">
      <stop
         id="stop899"
         offset="0"
         style="stop-opacity:1;stop-color:#ffffff" />
      <stop
         id="stop901"
         offset="0.62072222"
         style="stop-opacity:1;stop-color:#ffffff" />
      <stop
         id="stop903"
         offset="1"
         style="stop-opacity:0;stop-color:#ffffff" />
    </linearGradient>
    <mask
       id="mask907"
       height="1"
       width="1"
       y="0"
       x="0"
       maskUnits="userSpaceOnUse">
      <g
         id="g917">
        <g
           id="g915">
          <g
             id="g913">
            <g
               id="g911">
              <path
                 inkscape:connector-curvature="0"
                 id="path909"
                 style="fill:url(#linearGradient905);stroke:none"
                 d="M -32768,32767 H 32767 V -32768 H -32768 Z" />
            </g>
          </g>
        </g>
      </g>
    </mask>
    <linearGradient
       id="linearGradient925"
       spreadMethod="pad"
       gradientTransform="matrix(0,-126.22779,126.22779,0,401.87198,643.12048)"
       gradientUnits="userSpaceOnUse"
       y2="0"
       x2="1"
       y1="0"
       x1="0">
      <stop
         id="stop919"
         offset="0"
         style="stop-opacity:1;stop-color:#ffffff" />
      <stop
         id="stop921"
         offset="0.62072222"
         style="stop-opacity:1;stop-color:#ffffff" />
      <stop
         id="stop923"
         offset="1"
         style="stop-opacity:1;stop-color:#ffffff" />
    </linearGradient>
    <clipPath
       id="clipPath951"
       clipPathUnits="userSpaceOnUse">
      <path
         inkscape:connector-curvature="0"
         id="path949"
         d="M 0,497.523 H 606.55 V 285.144 H 0 Z" />
    </clipPath>
    <clipPath
       id="clipPath955"
       clipPathUnits="userSpaceOnUse">
      <path
         inkscape:connector-curvature="0"
         id="path953"
         d="m 0.333,483.653 c 0,0 26.667,24.137 66.667,8.729 40,-15.409 37.86,-34.575 47.93,-42.992 10.07,-8.417 17.053,-23.809 48.07,-10.417 31.017,13.393 45.697,17.471 64.849,-5.265 19.151,-22.735 -2.025,-40.735 25.563,-54.735 27.588,-14 37.885,8 61.737,0 23.851,-8 43.409,-42 60.63,-39 17.221,3 59.317,10.656 67.048,8.554 7.731,-2.103 163.723,-19.329 163.723,-19.329 0,0 -213.797,2.109 -240.906,-16.891 -27.108,-19 -36.052,-38.667 -58.348,-19 C 285,312.973 263,339.423 215,329.198 167,318.973 180.769,313.64 143.884,312.307 107,310.973 72.546,351.809 52.773,357.391 33,362.973 0,348.527 0,348.527 Z" />
    </clipPath>
    <linearGradient
       id="linearGradient967"
       spreadMethod="pad"
       gradientTransform="matrix(0,-121.06197,-121.06197,0,303.27518,452.97324)"
       gradientUnits="userSpaceOnUse"
       y2="0"
       x2="1"
       y1="0"
       x1="0">
      <stop
         id="stop961"
         offset="0"
         style="stop-opacity:1;stop-color:#ffffff" />
      <stop
         id="stop963"
         offset="0.30349991"
         style="stop-opacity:1;stop-color:#ffffff" />
      <stop
         id="stop965"
         offset="1"
         style="stop-opacity:0;stop-color:#ffffff" />
    </linearGradient>
    <mask
       id="mask969"
       height="1"
       width="1"
       y="0"
       x="0"
       maskUnits="userSpaceOnUse">
      <g
         id="g979">
        <g
           id="g977">
          <g
             id="g975">
            <g
               id="g973">
              <path
                 inkscape:connector-curvature="0"
                 id="path971"
                 style="fill:url(#linearGradient967);stroke:none"
                 d="M -32768,32767 H 32767 V -32768 H -32768 Z" />
            </g>
          </g>
        </g>
      </g>
    </mask>
    <linearGradient
       id="linearGradient987"
       spreadMethod="pad"
       gradientTransform="matrix(0,-121.06197,-121.06197,0,303.27518,452.97324)"
       gradientUnits="userSpaceOnUse"
       y2="0"
       x2="1"
       y1="0"
       x1="0">
      <stop
         id="stop981"
         offset="0"
         style="stop-opacity:1;stop-color:#ffffff" />
      <stop
         id="stop983"
         offset="0.30349991"
         style="stop-opacity:1;stop-color:#ffffff" />
      <stop
         id="stop985"
         offset="1"
         style="stop-opacity:1;stop-color:#ffffff" />
    </linearGradient>
    <clipPath
       id="clipPath1013"
       clipPathUnits="userSpaceOnUse">
      <path
         inkscape:connector-curvature="0"
         id="path1011"
         d="m 180.578,452.717 c 0,-76.735 62.205,-138.94 138.94,-138.94 v 0 c 76.735,0 138.94,62.205 138.94,138.94 v 0 c 0,76.735 -62.205,138.94 -138.94,138.94 v 0 c -76.735,0 -138.94,-62.205 -138.94,-138.94" />
    </clipPath>
    <linearGradient
       id="linearGradient1029"
       spreadMethod="pad"
       gradientTransform="matrix(0,-285.6185,-285.6185,0,319.51813,597.79968)"
       gradientUnits="userSpaceOnUse"
       y2="0"
       x2="1"
       y1="0"
       x1="0">
      <stop
         id="stop1023"
         offset="0"
         style="stop-opacity:1;stop-color:#ffffff" />
      <stop
         id="stop1025"
         offset="0.23107089"
         style="stop-opacity:1;stop-color:#ffffff" />
      <stop
         id="stop1027"
         offset="1"
         style="stop-opacity:0;stop-color:#ffffff" />
    </linearGradient>
    <mask
       id="mask1031"
       height="1"
       width="1"
       y="0"
       x="0"
       maskUnits="userSpaceOnUse">
      <g
         id="g1041">
        <g
           id="g1039">
          <g
             id="g1037">
            <g
               id="g1035">
              <path
                 inkscape:connector-curvature="0"
                 id="path1033"
                 style="fill:url(#linearGradient1029);stroke:none"
                 d="M -32768,32767 H 32767 V -32768 H -32768 Z" />
            </g>
          </g>
        </g>
      </g>
    </mask>
    <linearGradient
       id="linearGradient1053"
       spreadMethod="pad"
       gradientTransform="matrix(0,-285.6185,-285.6185,0,319.51813,597.79968)"
       gradientUnits="userSpaceOnUse"
       y2="0"
       x2="1"
       y1="0"
       x1="0">
      <stop
         id="stop1047"
         offset="0"
         style="stop-opacity:1;stop-color:#ffffff" />
      <stop
         id="stop1049"
         offset="0.23107089"
         style="stop-opacity:1;stop-color:#ffffff" />
      <stop
         id="stop1051"
         offset="1"
         style="stop-opacity:1;stop-color:#ffffff" />
    </linearGradient>
    <clipPath
       id="clipPath1063"
       clipPathUnits="userSpaceOnUse">
      <path
         inkscape:connector-curvature="0"
         id="path1061"
         d="M 0,800 H 800 V 0 H 0 Z" />
    </clipPath>
    <clipPath
       id="clipPath1111"
       clipPathUnits="userSpaceOnUse">
      <path
         inkscape:connector-curvature="0"
         id="path1109"
         d="M 0,219.028 H 800 V 76.5087 H 0 Z" />
    </clipPath>
    <clipPath
       id="clipPath1183"
       clipPathUnits="userSpaceOnUse">
      <path
         inkscape:connector-curvature="0"
         id="path1181"
         d="m 166.968,509.162 c -29.2,-4.027 -27.421,-35.273 -27.421,-35.273 v 0 c 0,0 -5.813,17.701 -16.127,14.263 v 0 c -10.315,-3.438 -10.205,-20.131 -10.205,-20.131 v 0 L 62.68,459.884 h 200.639 l -20.714,5.73 c 0,0 -3.057,32.853 -27.504,32.089 v 0 c -21.885,-0.684 -20.907,-20.629 -20.907,-20.629 v 0 c 0,0 -4.657,32.276 -24.544,32.277 v 0 c -0.865,0 -1.758,-0.061 -2.682,-0.189" />
    </clipPath>
    <linearGradient
       id="linearGradient1199"
       spreadMethod="pad"
       gradientTransform="matrix(0,44.62257,44.62257,0,163,459.88388)"
       gradientUnits="userSpaceOnUse"
       y2="0"
       x2="1"
       y1="0"
       x1="0">
      <stop
         id="stop1193"
         offset="0"
         style="stop-opacity:0;stop-color:#ffffff" />
      <stop
         id="stop1195"
         offset="0.54502744"
         style="stop-opacity:1;stop-color:#ffffff" />
      <stop
         id="stop1197"
         offset="1"
         style="stop-opacity:1;stop-color:#ffffff" />
    </linearGradient>
    <mask
       id="mask1201"
       height="1"
       width="1"
       y="0"
       x="0"
       maskUnits="userSpaceOnUse">
      <g
         id="g1211">
        <g
           id="g1209">
          <g
             id="g1207">
            <g
               id="g1205">
              <path
                 inkscape:connector-curvature="0"
                 id="path1203"
                 style="fill:url(#linearGradient1199);stroke:none"
                 d="M -32768,32767 H 32767 V -32768 H -32768 Z" />
            </g>
          </g>
        </g>
      </g>
    </mask>
    <linearGradient
       id="linearGradient1223"
       spreadMethod="pad"
       gradientTransform="matrix(0,44.62257,44.62257,0,163,459.88388)"
       gradientUnits="userSpaceOnUse"
       y2="0"
       x2="1"
       y1="0"
       x1="0">
      <stop
         id="stop1217"
         offset="0"
         style="stop-opacity:1;stop-color:#ffffff" />
      <stop
         id="stop1219"
         offset="0.54502744"
         style="stop-opacity:1;stop-color:#ffffff" />
      <stop
         id="stop1221"
         offset="1"
         style="stop-opacity:1;stop-color:#ffffff" />
    </linearGradient>
    <clipPath
       id="clipPath1233"
       clipPathUnits="userSpaceOnUse">
      <path
         inkscape:connector-curvature="0"
         id="path1231"
         d="m 501.402,370.826 c 0,0 -3.33,14.076 -17.529,12.462 v 0 c -16.272,-1.848 -15.075,-17.75 -15.075,-17.75 v 0 c 0,0 -3.397,12.494 -19.687,8.875 v 0 C 439.126,372.194 437.277,361.1 437.277,361.1 v 0 c 0,0 -5.559,16.111 -17.751,16.641 v 0 c -17.012,0.74 -24.408,-17.751 -24.408,-17.751 v 0 l -56.582,-6.656 236.464,4.437 -30.107,7.767 c 0,0 0.142,29.954 -22.118,29.954 v 0 c -22.26,0 -21.373,-24.666 -21.373,-24.666" />
    </clipPath>
    <linearGradient
       id="linearGradient1249"
       spreadMethod="pad"
       gradientTransform="matrix(0,38.030369,38.030369,0,456.76785,353.33331)"
       gradientUnits="userSpaceOnUse"
       y2="0"
       x2="1"
       y1="0"
       x1="0">
      <stop
         id="stop1243"
         offset="0"
         style="stop-opacity:0;stop-color:#ffffff" />
      <stop
         id="stop1245"
         offset="0.54502744"
         style="stop-opacity:1;stop-color:#ffffff" />
      <stop
         id="stop1247"
         offset="1"
         style="stop-opacity:1;stop-color:#ffffff" />
    </linearGradient>
    <mask
       id="mask1251"
       height="1"
       width="1"
       y="0"
       x="0"
       maskUnits="userSpaceOnUse">
      <g
         id="g1261">
        <g
           id="g1259">
          <g
             id="g1257">
            <g
               id="g1255">
              <path
                 inkscape:connector-curvature="0"
                 id="path1253"
                 style="fill:url(#linearGradient1249);stroke:none"
                 d="M -32768,32767 H 32767 V -32768 H -32768 Z" />
            </g>
          </g>
        </g>
      </g>
    </mask>
    <linearGradient
       id="linearGradient1273"
       spreadMethod="pad"
       gradientTransform="matrix(0,38.030369,38.030369,0,456.76785,353.33331)"
       gradientUnits="userSpaceOnUse"
       y2="0"
       x2="1"
       y1="0"
       x1="0">
      <stop
         id="stop1267"
         offset="0"
         style="stop-opacity:1;stop-color:#ffffff" />
      <stop
         id="stop1269"
         offset="0.54502744"
         style="stop-opacity:1;stop-color:#ffffff" />
      <stop
         id="stop1271"
         offset="1"
         style="stop-opacity:1;stop-color:#ffffff" />
    </linearGradient>
    <clipPath
       id="clipPath1283"
       clipPathUnits="userSpaceOnUse">
      <path
         inkscape:connector-curvature="0"
         id="path1281"
         d="m 730.155,580.157 c -36.123,-0.116 -40.499,-34.498 -40.499,-34.498 v 0 c 0,0 -2.076,13.93 -23.742,13.597 v 0 c -21.487,-0.331 -21.699,-19.597 -21.699,-19.597 v 0 c 0,0 -0.139,27.831 -17.967,28.498 v 0 c -29.335,1.099 -28.086,-29.998 -28.086,-29.998 v 0 c 0,0 -6.75,15.43 -23.248,12.43 v 0 c -16.5,-2.999 -19.667,-17 -19.667,-17 v 0 l -91.63,-8.93 h 334.034 l -32.404,5.931 c 0,0 3.32,49.563 -34.95,49.567 v 0 c -0.049,0 -0.093,0 -0.142,0" />
    </clipPath>
    <linearGradient
       id="linearGradient1299"
       spreadMethod="pad"
       gradientTransform="matrix(0,50.062454,50.062454,0,630.63428,524.65985)"
       gradientUnits="userSpaceOnUse"
       y2="0"
       x2="1"
       y1="0"
       x1="0">
      <stop
         id="stop1293"
         offset="0"
         style="stop-opacity:0;stop-color:#ffffff" />
      <stop
         id="stop1295"
         offset="0.69650009"
         style="stop-opacity:1;stop-color:#ffffff" />
      <stop
         id="stop1297"
         offset="1"
         style="stop-opacity:1;stop-color:#ffffff" />
    </linearGradient>
    <mask
       id="mask1301"
       height="1"
       width="1"
       y="0"
       x="0"
       maskUnits="userSpaceOnUse">
      <g
         id="g1311">
        <g
           id="g1309">
          <g
             id="g1307">
            <g
               id="g1305">
              <path
                 inkscape:connector-curvature="0"
                 id="path1303"
                 style="fill:url(#linearGradient1299);stroke:none"
                 d="M -32768,32767 H 32767 V -32768 H -32768 Z" />
            </g>
          </g>
        </g>
      </g>
    </mask>
    <linearGradient
       id="linearGradient1323"
       spreadMethod="pad"
       gradientTransform="matrix(0,50.062454,50.062454,0,630.63428,524.65985)"
       gradientUnits="userSpaceOnUse"
       y2="0"
       x2="1"
       y1="0"
       x1="0">
      <stop
         id="stop1317"
         offset="0"
         style="stop-opacity:1;stop-color:#ffffff" />
      <stop
         id="stop1319"
         offset="0.69650009"
         style="stop-opacity:1;stop-color:#ffffff" />
      <stop
         id="stop1321"
         offset="1"
         style="stop-opacity:1;stop-color:#ffffff" />
    </linearGradient>
    <clipPath
       id="clipPath1333"
       clipPathUnits="userSpaceOnUse">
      <path
         inkscape:connector-curvature="0"
         id="path1331"
         d="M 0,800 H 800 V 0 H 0 Z" />
    </clipPath>
  </defs>
  <sodipodi:namedview
     id="base"
     pagecolor="#ffffff"
     bordercolor="#666666"
     borderopacity="1.0"
     inkscape:pageopacity="0.0"
     inkscape:pageshadow="2"
     inkscape:zoom="0.49497475"
     inkscape:cx="613.79579"
     inkscape:cy="179.95651"
     inkscape:document-units="mm"
     inkscape:current-layer="layer1"
     showgrid="false"
     inkscape:window-width="1680"
     inkscape:window-height="987"
     inkscape:window-x="-8"
     inkscape:window-y="51"
     inkscape:window-maximized="1"
     fit-margin-top="0"
     fit-margin-left="0"
     fit-margin-right="0"
     fit-margin-bottom="0" />
  <metadata
     id="metadata5">
    <rdf:RDF>
      <cc:Work
         rdf:about="">
        <dc:format>image/svg+xml</dc:format>
        <dc:type
           rdf:resource="http://purl.org/dc/dcmitype/StillImage" />
        <dc:title></dc:title>
      </cc:Work>
    </rdf:RDF>
  </metadata>
  <g
     inkscape:label="Layer 1"
     inkscape:groupmode="layer"
     id="layer1"
     style="display:inline"
     transform="translate(0.57994185,0.27400175)">
    <g
       transform="matrix(0.35277777,0,0,-0.35277777,-8.063489,413.86189)"
       inkscape:label="89402-OKS7OD-583"
       id="g823">
      <g
         id="g825"
         transform="matrix(0.7480932,0,0,0.75177795,21.213205,572.75652)">
        <g
           id="g827">
          <g
             id="g833">
            <g
               id="g835">
              <path
                 inkscape:connector-curvature="0"
                 id="path847"
                 style="fill:url(#linearGradient845);stroke:none"
                 d="M 0.333,219.167 H 800 v 580.5 H 0.333 Z" />
            </g>
          </g>
        </g>
      </g>
      <path
         inkscape:connector-curvature="0"
         id="path849"
         style="fill:#fde58f;fill-opacity:1;fill-rule:nonzero;stroke:none;stroke-width:0.7499333"
         d="M 21.213205,572.75652 H 619.68777 V 737.39589 H 21.213205 Z" />
      <g
         id="g851"
         transform="matrix(0.7480932,0,0,0.75177795,21.213205,572.75652)">
        <g
           id="g853">
          <g
             id="g859">
            <g
               id="g861">
              <path
                 inkscape:connector-curvature="0"
                 id="path873"
                 style="fill:url(#linearGradient871);stroke:none"
                 d="M 0,0 H 800 V 219 H 0 Z" />
            </g>
          </g>
        </g>
      </g>
      <g
         id="g875"
         transform="matrix(0.7480932,0,0,0.75177795,21.213205,572.75652)">
        <g
           clip-path="url(#clipPath881)"
           id="g877">
          <g
             id="g883">
            <g
               id="g885" />
            <g
               id="g943">
              <g
                 style="opacity:0.19999701"
                 id="g941"
                 clip-path="url(#clipPath889)">
                <g
                   id="g939">
                  <g
                     id="g937"
                     clip-path="url(#clipPath893)">
                    <g
                       id="g935">
                      <g
                         id="g927" />
                      <g
                         id="g933"
                         mask="url(#mask907)">
                        <g
                           id="g931">
                          <path
                             inkscape:connector-curvature="0"
                             id="path929"
                             style="fill:url(#linearGradient925);stroke:none"
                             d="m 798.55,660.726 c -13.902,45.356 -102.015,14.353 -125.802,-6.028 -17.433,-14.936 -36.282,-36.936 -58.19,-30.078 -7.691,2.408 -13.783,8.155 -20.435,12.705 -25.361,17.345 -61.878,16.27 -86.175,-2.538 -15.191,-11.76 -27.778,-30.381 -46.968,-31.29 -10.637,-0.503 -20.758,4.885 -31.398,5.302 -25.236,0.989 -42.338,-24.304 -63.554,-38.004 -23.575,-15.225 -44.414,-10.386 -69.843,-6.307 -22.558,3.619 -46.339,0.393 -69.145,-1.944 -31.917,-3.27 -66.156,-15.339 -98.04,-15.372 -6,0 -127,-20 -127,-20 0,0 95,-15.993 145,-10.996 50,4.996 25.273,5.386 70.801,0 45.529,-5.387 96.711,-19.004 116.955,-17.004 20.244,2 -10.526,-0.398 62.859,-0.199 73.385,0.199 78.526,-10.936 150.973,-10.304 72.447,0.632 79.597,20.51 124.005,27.507 C 717,523.172 800,513.482 800,513.482 v 80.656 c 0,15.03 4.755,46.263 -1.438,66.548 -0.004,0.013 -0.008,0.027 -0.012,0.04" />
                        </g>
                      </g>
                    </g>
                  </g>
                </g>
              </g>
            </g>
          </g>
          <g
             id="g945">
            <g
               id="g947" />
            <g
               id="g1005">
              <g
                 style="opacity:0.30000299"
                 id="g1003"
                 clip-path="url(#clipPath951)">
                <g
                   id="g1001">
                  <g
                     id="g999"
                     clip-path="url(#clipPath955)">
                    <g
                       id="g997">
                      <g
                         id="g989" />
                      <g
                         id="g995"
                         mask="url(#mask969)">
                        <g
                           id="g993">
                          <path
                             inkscape:connector-curvature="0"
                             id="path991"
                             style="fill:url(#linearGradient987);stroke:none"
                             d="m 0.333,483.653 c 0,0 26.667,24.137 66.667,8.729 40,-15.409 37.86,-34.575 47.93,-42.992 10.07,-8.417 17.053,-23.809 48.07,-10.417 31.017,13.393 45.697,17.471 64.849,-5.265 19.151,-22.735 -2.025,-40.735 25.563,-54.735 27.588,-14 37.885,8 61.737,0 23.851,-8 43.409,-42 60.63,-39 17.221,3 59.317,10.656 67.048,8.554 7.731,-2.103 163.723,-19.329 163.723,-19.329 0,0 -213.797,2.109 -240.906,-16.891 -27.108,-19 -36.052,-38.667 -58.348,-19 C 285,312.973 263,339.423 215,329.198 167,318.973 180.769,313.64 143.884,312.307 107,310.973 72.546,351.809 52.773,357.391 33,362.973 0,348.527 0,348.527 Z" />
                        </g>
                      </g>
                    </g>
                  </g>
                </g>
              </g>
            </g>
          </g>
        </g>
      </g>
      <g
         id="g1007"
         transform="matrix(0.7480932,0,0,0.75177795,21.213205,572.75652)">
        <g
           clip-path="url(#clipPath1013)"
           id="g1009">
          <g
             id="g1015">
            <g
               id="g1017" />
            <g
               mask="url(#mask1031)"
               id="g1043">
              <g
                 id="g1045">
                <path
                   inkscape:connector-curvature="0"
                   id="path1055"
                   style="fill:url(#linearGradient1053);stroke:none"
                   d="m 180.578,452.717 c 0,-76.735 62.205,-138.94 138.94,-138.94 v 0 c 76.735,0 138.94,62.205 138.94,138.94 v 0 c 0,76.735 -62.205,138.94 -138.94,138.94 v 0 c -76.735,0 -138.94,-62.205 -138.94,-138.94" />
              </g>
            </g>
          </g>
        </g>
      </g>
      <g
         id="g1057"
         transform="matrix(0.7480932,0,0,0.75177795,21.213205,572.75652)">
        <g
           clip-path="url(#clipPath1063)"
           id="g1059">
          <g
             transform="translate(472.8519,219)"
             id="g1065">
            <path
               inkscape:connector-curvature="0"
               id="path1067"
               style="fill:#e09686;fill-opacity:1;fill-rule:nonzero;stroke:none"
               d="m 0,0 c 0,0 -68.569,39.054 -136.101,51.143 -33.716,6.035 -46.081,-21.387 -77.696,0 -31.616,21.387 -24.177,35.703 -46.494,35.984 -22.316,0.28 -33.475,15.158 -70.669,15.158 -37.195,0 -26.037,-26.966 -92.987,-15.158 -16.259,2.867 -34.405,0 -34.405,0 V 0 Z" />
          </g>
          <g
             transform="translate(584.1985,316.2438)"
             id="g1069">
            <path
               inkscape:connector-curvature="0"
               id="path1071"
               style="fill:#e09686;fill-opacity:1;fill-rule:nonzero;stroke:none"
               d="m 0,0 c 0,0 -2.391,-4.783 -14.347,-7.174 -11.957,-2.391 -28.695,13.337 -31.087,11.85 -2.391,-1.488 -19.958,-5.999 -19.958,-5.999 0,0 -5.548,3.7 -9.534,6.098 -3.985,2.399 -11.956,-13.127 -11.956,-13.127 0,0 -15.941,3.871 -23.912,0.93 -7.971,-2.94 -13.551,-2.143 -19.927,-10.114 -6.377,-7.971 -31.086,-2.391 -38.26,3.986 -7.174,6.376 -19.13,12.264 -25.507,5.335 -6.376,-6.93 -13.55,-13.306 -15.144,-17.292 -1.594,-3.985 -4.61,-16.738 -16.254,-21.521 -11.644,-4.782 -10.954,-18.333 -10.954,-18.333 0,0 -27.345,-31.883 -25.177,-31.883 H 0 Z" />
          </g>
          <g
             transform="translate(0,372.3333)"
             id="g1073">
            <path
               inkscape:connector-curvature="0"
               id="path1075"
               style="fill:#c98273;fill-opacity:1;fill-rule:nonzero;stroke:none"
               d="m 0,0 c 0,0 31,-3.333 39,-9.333 13.194,-9.896 36,10 42,0 6,-10 24,-53.481 24,-53.481 l 58,-90.519 H 0 Z" />
          </g>
          <g
             transform="translate(92.3333,309.5195)"
             id="g1077">
            <path
               inkscape:connector-curvature="0"
               id="path1079"
               style="fill:#c98273;fill-opacity:1;fill-rule:nonzero;stroke:none"
               d="m 0,0 c 0,0 52,-1.853 55.333,-3.853 3.334,-2 13.334,-15.333 21.334,-10.667 8,4.667 14.91,6.985 19.333,6.768 8.865,-0.434 14.333,-16.101 24.333,-18.434 9.182,-2.143 33.795,-61 89.397,-64.334 L 0,-90.52 Z" />
          </g>
          <g
             transform="translate(242,219)"
             id="g1081">
            <path
               inkscape:connector-curvature="0"
               id="path1083"
               style="fill:#c98273;fill-opacity:1;fill-rule:nonzero;stroke:none"
               d="m 0,0 c 0,0 49.333,33 60.851,28 14.301,-6.208 22.793,-0.59 27.276,4.683 2.522,2.965 6.231,4.644 10.124,4.644 h 45.158 L 173.399,55 c 0,0 12.101,11 23.851,11 11.75,0 63.998,-11 63.998,-11 L 307,66 323,0 Z" />
          </g>
          <g
             transform="translate(0,329)"
             id="g1085">
            <path
               inkscape:connector-curvature="0"
               id="path1087"
               style="fill:#bf6e5d;fill-opacity:1;fill-rule:nonzero;stroke:none"
               d="M 0,0 C 0,0 1,13.333 28.333,13.333 36.471,13.333 37,6.667 45,3.333 53,0 53.667,0.667 57.667,0 61.667,-0.667 71,-2.667 71,-8.667 c 0,-6 9.333,-14 14,-15.333 4.667,-1.333 7.333,-7.887 7.333,-7.887 L 242,-110 H 0 Z" />
          </g>
          <g
             transform="translate(800,427.1866)"
             id="g1089">
            <path
               inkscape:connector-curvature="0"
               id="path1091"
               style="fill:#bf6e5d;fill-opacity:1;fill-rule:nonzero;stroke:none"
               d="m 0,0 h -18.066 c 0,0 -1.72,5.162 -13.764,10.323 -12.044,5.162 -24.088,-5.161 -29.25,0 -2.032,2.033 -5.131,0.864 -8.142,-1.3 -7.084,-5.09 -16.218,-6.376 -24.341,-3.197 -0.069,0.027 -0.138,0.054 -0.207,0.081 -6.882,2.696 -30.97,7.627 -36.132,0 -5.161,-7.628 -36.131,-9.348 -39.572,-17.951 -3.441,-8.603 -6.882,-24.088 -15.485,-40.433 -8.603,-16.345 -24.877,-14.271 -29.25,-35.271 -2.133,-10.246 -17.205,-43.014 -17.205,-43.014 0,0 -13.143,8.603 -22.917,0 -9.774,-8.603 -0.737,-25.808 -19.02,-27.529 -18.282,-1.72 -60.142,0 -60.142,0 0,0 -7.662,1.721 -37.959,-6.882 -30.297,-8.603 -63.112,-25.602 -63.112,-25.602 l -34.286,-17.412 H 0 Z" />
          </g>
          <g
             transform="translate(800,400)"
             id="g1093">
            <path
               inkscape:connector-curvature="0"
               id="path1095"
               style="fill:#aa6253;fill-opacity:1;fill-rule:nonzero;stroke:none"
               d="M 0,0 C 0,0 -5,14 -19,6 -33,-2 -10,-13 -33,-10 -56,-7 -59,10.681 -70,8.341 -81,6 -87,-14.011 -102,-10.505 -117,-7 -129,-15 -135,-23 c -6,-8 -6,-22 -26,-37 -20,-15 -16,-37.691 -20,-46.345 -4,-8.655 -6,-7.655 -16,-19.655 -10,-12 -21,-28 -24,-31 -3,-3 -60.578,-10 -59.789,-13 0.789,-3 -57.942,-11 -57.942,-11 H 0 Z" />
          </g>
          <g
             transform="translate(787.4697,293.0978)"
             id="g1097">
            <path
               inkscape:connector-curvature="0"
               id="path1099"
               style="fill:#804538;fill-opacity:1;fill-rule:nonzero;stroke:none"
               d="M 0,0 C -0.142,1.092 -0.293,2.182 -0.465,3.27 -0.617,4.225 -0.813,5.194 -1.292,6.034 -1.771,6.875 -2.58,7.578 -3.539,7.704 -4.598,7.842 -5.656,7.245 -6.299,6.393 -6.942,5.541 -7.228,4.471 -7.377,3.414 -7.469,2.757 -7.477,1.596 -7.643,0.55 -9.044,0.559 -10.46,0.511 -11.872,0.392 c -0.349,0.644 -0.587,1.367 -0.768,2.081 -0.797,3.161 -1.078,6.453 -0.827,9.704 0.139,1.807 0.437,3.662 -0.067,5.403 -0.503,1.741 -2.125,3.334 -3.918,3.07 -1.575,-0.232 -2.663,-1.808 -2.906,-3.382 -0.243,-1.573 0.155,-3.165 0.46,-4.727 0.891,-4.565 0.721,-9.056 0.429,-13.617 -0.852,-0.279 -1.68,-0.608 -2.491,-0.972 -0.306,0.087 -0.603,-0.094 -0.816,-0.386 -0.978,-0.486 -1.915,-1.045 -2.807,-1.679 -0.16,0.367 -0.251,0.772 -0.329,1.169 -0.63,3.239 -0.853,6.37 -1.287,9.608 -0.164,1.224 -0.962,2.564 -2.196,2.594 -1.55,0.039 -2.314,-1.863 -2.499,-3.402 -0.557,-4.615 0.139,-9.267 0.514,-13.913 -4.126,-2.17 -6.998,-1.96 -9.523,-1.257 -0.263,2.041 -0.357,4.138 -0.634,5.194 -0.834,3.178 -1.118,6.217 -1.376,9.53 -0.101,1.308 -0.473,2.941 -1.76,3.197 -0.874,0.174 -1.746,-0.472 -2.13,-1.277 -0.384,-0.804 -0.396,-1.73 -0.4,-2.622 -0.019,-4.078 0.225,-8.244 0.193,-12.361 -1.062,0.081 -2.194,-0.023 -3.46,-0.445 -3.184,-1.061 -5.31,-2.652 -7.349,-4.328 -0.03,2.519 -0.309,5.029 -1.252,7.348 -0.271,0.667 -0.904,1.436 -1.555,1.126 -0.357,-0.17 -0.501,-0.597 -0.583,-0.984 -0.61,-2.882 0.227,-5.944 -0.506,-8.798 -0.116,-0.452 -0.333,-0.956 -0.783,-1.08 -0.729,-0.201 -1.231,0.708 -1.437,1.435 -0.317,1.117 -0.635,2.234 -0.952,3.351 -0.168,0.59 -0.411,1.263 -0.992,1.458 -0.527,0.176 -1.115,-0.154 -1.417,-0.62 -0.301,-0.466 -0.383,-1.036 -0.458,-1.586 -0.197,-1.452 -0.394,-2.904 -0.591,-4.356 -0.418,-3.085 -3.706,-4.806 -6.059,-2.146 -1.246,1.409 -1.514,3.436 -1.413,5.314 0.102,1.878 0.514,3.745 0.396,5.622 -0.055,0.882 -0.257,1.813 -0.884,2.435 -0.627,0.623 -1.786,0.762 -2.356,0.088 -0.336,-0.397 -0.392,-0.952 -0.434,-1.47 -0.071,-0.877 0.02,-3.801 -0.637,-4.451 -0.455,-0.452 -1.16,0.203 -1.422,0.789 -2.674,5.961 -1.38,12.856 -1.925,19.367 -0.058,0.696 -0.149,1.422 -0.536,2.004 -0.387,0.583 -1.161,0.968 -1.804,0.695 -0.535,-0.227 -0.815,-0.809 -1.022,-1.351 -0.536,-1.399 -0.906,-2.86 -1.101,-4.344 -0.327,-2.497 -0.155,-5.012 -0.223,-7.521 -0.06,-2.169 0.413,-4.691 -0.544,-6.701 -0.316,-0.665 -1.024,-1.357 -1.685,-1.033 -0.392,0.192 -0.55,0.659 -0.671,1.079 -0.254,0.884 -0.507,1.768 -0.761,2.653 -0.245,0.854 -0.796,1.913 -1.67,1.748 -0.658,-0.123 -0.958,-0.893 -1.045,-1.558 -0.278,-2.131 0.414,-4.252 0.745,-6.375 0.325,-2.09 0.299,-4.235 -0.079,-6.316 -0.07,-0.387 -0.162,-0.792 -0.43,-1.08 -0.268,-0.288 -0.769,-0.395 -1.052,-0.122 -0.166,0.159 -0.217,0.401 -0.261,0.627 -0.168,0.873 -0.337,1.746 -0.505,2.62 -0.085,0.441 -0.213,0.941 -0.615,1.142 -0.663,0.33 -1.366,-0.472 -1.464,-1.206 -0.125,-0.931 0.208,-1.889 0.022,-2.81 -0.425,-2.102 -2.723,-1.437 -3.386,0.078 -0.343,0.782 -0.404,1.653 -0.488,2.503 -0.186,1.887 -0.502,3.762 -0.946,5.605 -0.112,0.465 -0.24,0.945 -0.545,1.313 -0.851,1.028 -2.653,0.589 -3.427,-0.498 -0.773,-1.087 -0.813,-2.515 -0.824,-3.85 -0.029,-3.714 -0.059,-7.428 -0.089,-11.142 -0.005,-0.671 -0.068,-1.454 -0.627,-1.824 -0.552,-0.364 -1.338,-0.102 -1.775,0.395 -0.436,0.497 -0.614,1.163 -0.796,1.799 -0.376,1.315 -0.826,2.609 -1.346,3.874 -0.199,0.483 -0.542,1.047 -1.062,0.997 -0.221,-0.021 -0.416,-0.16 -0.563,-0.327 -0.949,-1.078 -0.047,-2.934 -0.835,-4.136 -0.482,-0.735 -1.586,-0.967 -2.323,-0.489 -0.744,0.483 -1.472,1.592 -2.205,1.093 -0.303,-0.206 -0.388,-0.61 -0.432,-0.974 -0.27,-2.229 0.278,-4.564 -0.343,-6.755 -0.661,-2.338 -3.655,-4.216 -5.056,-1.177 -0.513,1.113 -0.426,2.396 -0.383,3.62 0.077,2.208 -0.06,4.543 -1.255,6.401 -0.243,0.377 -0.601,0.765 -1.049,0.737 -0.61,-0.037 -0.884,-0.769 -1.012,-1.367 -0.215,-1.006 -0.43,-2.011 -0.645,-3.017 -0.095,-0.445 -0.235,-0.949 -0.644,-1.146 -0.812,-0.391 -1.481,0.751 -1.646,1.637 -0.453,2.433 -0.705,4.904 -0.75,7.378 -0.045,2.425 0.061,5.219 -1.277,7.359 -1.552,2.482 -3.995,3.333 -4.628,-0.29 -0.796,-4.552 0.356,-9.206 0.319,-13.827 -0.008,-1.015 -0.259,-2.257 -0.712,-3.176 -0.269,-0.546 -0.872,-1.005 -1.458,-0.838 -0.749,0.213 -0.905,1.18 -1.007,1.952 -0.155,1.17 -0.509,2.314 -1.043,3.366 -0.18,0.355 -0.436,0.739 -0.831,0.788 -0.224,0.028 -0.449,-0.064 -0.635,-0.193 -0.667,-0.464 -0.895,-1.335 -1.019,-2.137 -0.307,-1.983 1.488,-10.414 -1.387,-11.021 -0.963,-0.204 -1.912,0.575 -2.256,1.496 -0.344,0.922 -0.238,1.942 -0.137,2.92 0.605,5.876 0.834,11.789 0.688,17.694 -0.023,0.907 -0.062,1.845 -0.464,2.659 -0.402,0.813 -1.269,1.469 -2.166,1.333 -1.145,-0.174 -1.741,-1.439 -2.057,-2.553 -1.892,-6.68 -0.747,-13.787 -0.827,-20.729 -0.003,-0.261 -0.009,-0.529 -0.113,-0.769 -0.368,-0.852 -1.735,-0.736 -2.319,-0.013 -0.583,0.723 -0.62,1.726 -0.681,2.653 -0.125,1.902 -0.46,3.789 -0.999,5.617 -0.316,1.071 -1.234,2.368 -2.239,1.884 -0.308,-0.148 -0.518,-0.44 -0.692,-0.733 -1.632,-2.752 -0.873,-5.748 -0.895,-8.741 -0.016,-2.262 0.491,-5.69 -1.668,-7.197 -0.219,-0.152 -0.466,-0.28 -0.731,-0.297 -0.758,-0.051 -1.276,0.756 -1.484,1.486 -0.208,0.73 -0.331,1.569 -0.94,2.022 -0.902,0.672 -2.279,-0.047 -2.725,-1.079 -0.447,-1.031 -0.271,-2.209 -0.181,-3.33 0.123,-1.518 0.074,-3.05 -0.147,-4.557 -0.086,-0.588 -0.488,-1.353 -1.043,-1.137 -0.217,0.085 -0.348,0.303 -0.457,0.509 -0.376,0.716 -0.684,1.467 -0.918,2.242 -0.277,0.92 -0.92,2.142 -1.81,1.78 -0.472,-0.193 -0.651,-0.758 -0.755,-1.258 -0.395,-1.903 -0.522,-3.86 -0.392,-5.799 -0.996,-0.002 -1.946,-0.017 -2.845,-0.049 -0.246,0.792 -0.436,1.603 -0.527,2.428 -0.045,0.41 -0.084,0.855 -0.363,1.159 -0.48,0.525 -1.419,0.288 -1.846,-0.28 -0.427,-0.568 -0.486,-1.323 -0.528,-2.033 -0.031,-0.501 -0.061,-1.002 -0.091,-1.502 -2.069,-0.228 -3.667,-0.607 -4.618,-1.202 -5.334,-3.333 -14,-10.666 -17.334,-12 -3.333,-1.333 -20,-12 -20,-12 h 235 v 71.334 c 0,0 -5.401,1.819 -12.53,2.764" />
          </g>
          <g
             transform="translate(534.67,220.9367)"
             id="g1101">
            <path
               inkscape:connector-curvature="0"
               id="path1103"
               style="fill:#804538;fill-opacity:1;fill-rule:nonzero;stroke:none"
               d="m 0,0 c -4.019,2.335 -6.952,6.619 -7.288,11.28 -0.169,2.355 -0.282,5.504 -2.584,6.025 -1.891,0.427 -3.505,-1.635 -3.7,-3.563 -0.194,-1.929 0.462,-3.853 0.392,-5.79 -0.069,-1.937 -1.336,-4.136 -3.273,-4.08 -1.88,0.054 -3.008,2.133 -3.353,3.982 -0.346,1.848 -0.376,3.911 -1.626,5.316 -1.621,0.294 -2.326,-1.962 -2.382,-3.609 -0.094,-2.802 -2.719,-5.302 -4.886,-2.303 -0.627,0.868 -0.904,1.941 -1.053,3.002 -0.308,2.205 -0.112,4.449 -0.291,6.668 -0.178,2.219 -0.804,4.531 -2.421,6.062 -0.205,0.195 -0.431,0.378 -0.698,0.472 -0.744,0.262 -1.578,-0.272 -1.928,-0.979 -0.349,-0.706 -0.338,-1.531 -0.318,-2.319 0.06,-2.456 0.119,-4.913 0.179,-7.37 0.023,-0.932 0.043,-1.884 -0.237,-2.773 -0.281,-0.889 -0.921,-1.719 -1.818,-1.973 -5.059,-1.431 -2.839,7.546 -5.964,7.814 -0.601,0.052 -1.187,-0.274 -1.588,-0.725 -0.401,-0.45 -0.647,-1.015 -0.87,-1.576 -0.509,-1.278 -0.038,-2.671 -0.318,-4.015 -0.194,-0.935 -0.816,-1.883 -1.757,-2.044 -0.996,-0.171 -1.949,0.628 -2.323,1.567 -0.374,0.939 -0.317,1.986 -0.293,2.996 0.046,1.956 -0.054,3.915 -0.3,5.855 -0.109,0.864 -0.263,1.763 -0.791,2.455 -0.527,0.692 -1.544,1.088 -2.297,0.652 -0.887,-0.513 -0.92,-1.752 -0.92,-2.777 0.001,-2.848 -0.6,-5.694 -1.751,-8.298 -0.254,-0.574 -0.643,-1.215 -1.269,-1.258 -0.515,-0.036 -0.959,0.366 -1.235,0.802 -0.573,0.904 -0.698,2.011 -1.029,3.03 -0.942,2.893 -3.724,1.715 -4.04,-0.829 -0.078,-0.63 -0.156,-1.261 -0.235,-1.891 -0.104,-0.841 -0.405,-1.89 -1.246,-1.99 -3.028,-0.357 -0.875,8.543 -3.959,9.142 -1.495,0.291 -2.547,-1.445 -2.901,-2.927 -0.353,-1.482 -0.71,-3.279 -2.137,-3.814 -1.165,-0.436 -2.506,0.3 -3.17,1.351 -0.664,1.052 -0.814,2.337 -0.948,3.574 -0.177,1.64 -0.355,3.28 -0.532,4.92 -0.273,2.527 -0.644,5.266 -2.444,7.06 -0.273,0.272 -0.649,0.532 -1.014,0.411 -0.264,-0.088 -0.427,-0.348 -0.546,-0.6 -1.506,-3.168 -0.03,-7.134 -0.96,-10.524 -0.104,-0.378 -0.216,-0.771 -0.477,-1.064 -0.262,-0.292 -0.722,-0.448 -1.057,-0.244 -0.288,0.174 -0.389,0.535 -0.467,0.863 -0.156,0.658 -0.312,1.316 -0.468,1.974 -0.087,0.367 -0.19,0.759 -0.478,1.002 -0.581,0.49 -1.537,0.014 -1.841,-0.683 -0.305,-0.697 -0.189,-1.494 -0.173,-2.254 0.025,-1.152 -0.199,-2.309 -0.65,-3.369 -0.424,-0.995 -1.289,-2.021 -2.36,-1.87 -1.13,0.16 -1.645,1.476 -1.891,2.591 -0.274,1.246 -0.489,2.505 -0.645,3.772 -0.072,0.588 -0.136,1.193 -0.402,1.723 -0.266,0.531 -0.788,0.978 -1.381,0.972 -0.904,-0.01 -1.471,-1 -1.629,-1.89 -0.317,-1.779 -1.1,-5.546 -4.064,-4.158 -1.134,0.532 -1.284,2.041 -1.424,3.286 -0.287,2.546 -1.202,5.02 -2.642,7.14 -0.179,0.264 -0.373,0.528 -0.644,0.694 -0.616,0.377 -1.467,0.113 -1.948,-0.425 -0.481,-0.538 -0.666,-1.276 -0.768,-1.99 -0.28,-1.963 -0.054,-3.958 0.096,-5.935 0.063,-0.834 0.104,-1.715 -0.277,-2.459 -0.381,-0.744 -1.337,-1.26 -2.078,-0.872 -0.778,0.408 -0.866,1.461 -0.912,2.338 -0.086,1.622 -0.371,3.234 -0.846,4.787 -0.142,0.464 -0.389,1 -0.87,1.065 -0.592,0.08 -0.978,-0.607 -1.104,-1.191 -0.432,-2.009 0.1,-4.121 -0.253,-6.146 -0.03,-0.175 -0.073,-0.36 -0.197,-0.487 -0.311,-0.316 -0.892,-0.027 -1.044,0.389 -0.152,0.416 -0.042,0.875 -0.015,1.317 0.027,0.442 -0.084,0.963 -0.485,1.152 -0.39,0.183 -0.872,-0.063 -1.1,-0.429 -0.227,-0.366 -0.264,-0.815 -0.294,-1.245 -0.022,-0.306 -0.028,-0.611 -0.028,-0.916 l -4.163,1.082 c 0,0 -22.722,11.244 -32.668,13.118 -8.784,1.655 -28.473,-9.838 -32.956,-12.548 -0.29,1.117 -0.353,2.291 -0.34,3.633 0.027,2.852 -0.32,5.708 -1.035,8.469 -0.144,0.558 -0.398,1.205 -0.962,1.323 -0.701,0.146 -1.223,-0.638 -1.445,-1.32 -0.759,-2.33 -0.612,-4.847 -0.967,-7.271 -0.118,-0.808 -0.318,-1.656 -0.892,-2.237 -0.574,-0.581 -1.633,-0.749 -2.184,-0.146 -0.338,0.371 -0.399,0.908 -0.502,1.399 -0.176,0.839 -0.522,1.641 -1.012,2.344 -0.192,0.276 -0.428,0.552 -0.753,0.636 -0.798,0.207 -1.338,-0.783 -1.563,-1.576 -0.265,-0.935 -0.53,-1.87 -0.794,-2.804 -0.144,-0.509 -0.315,-1.057 -0.746,-1.363 -1.544,-1.097 -1.633,2.396 -1.76,3.102 -0.364,2.024 -0.729,4.049 -1.093,6.074 -0.131,0.724 -0.276,1.481 -0.739,2.052 -0.462,0.572 -1.352,0.87 -1.951,0.444 -0.518,-0.368 -0.617,-1.083 -0.671,-1.716 -0.206,-2.43 0.189,-6.867 -2.349,-8.281 -0.2,-0.111 -0.421,-0.203 -0.649,-0.19 -0.684,0.038 -0.957,0.899 -0.993,1.583 -0.036,0.685 -0.114,1.529 -0.747,1.791 -0.684,0.283 -1.409,-0.43 -1.568,-1.153 -0.159,-0.724 0.003,-1.488 -0.152,-2.212 -0.156,-0.725 -0.869,-1.444 -1.558,-1.173 -0.444,0.175 -0.695,0.697 -1.156,0.82 -0.783,0.208 -1.282,-0.805 -1.452,-1.597 -0.074,-0.35 -0.149,-0.699 -0.224,-1.049 -6.274,0.844 -15.004,2.232 -15.92,2.796 -0.858,0.527 -3.068,2.032 -4.038,1.594 -0.52,-0.234 -0.891,-0.7 -1.332,-1.061 -0.44,-0.362 -1.06,-0.629 -1.572,-0.378 -0.379,0.186 -0.582,0.598 -0.759,0.981 -0.31,0.674 -0.62,1.348 -0.93,2.022 -0.254,0.552 -0.725,1.21 -1.305,1.026 -0.49,-0.155 -0.595,-0.781 -0.719,-1.28 -0.153,-0.614 -0.607,-1.276 -1.238,-1.227 -2.337,0.182 -0.886,5.947 -1.169,7.156 -0.047,0.204 -0.118,0.412 -0.267,0.561 -0.326,0.325 -0.888,0.234 -1.28,-0.009 -2.108,-1.305 -0.256,-9.178 -3.972,-7.972 -0.967,0.314 -1.581,1.311 -1.751,2.314 -0.118,0.695 -0.066,1.419 -0.268,2.094 -0.203,0.675 -0.782,1.324 -1.485,1.272 -0.814,-0.061 -1.269,-0.977 -1.396,-1.783 -0.127,-0.806 -0.118,-1.701 -0.642,-2.327 -0.501,-0.597 -1.452,-0.757 -2.12,-0.354 -0.615,0.37 -0.92,1.089 -1.122,1.778 -0.202,0.689 -0.351,1.421 -0.791,1.988 -0.44,0.568 -1.291,0.902 -1.891,0.508 -0.494,-0.324 -0.621,-0.975 -0.833,-1.526 -0.212,-0.552 -0.727,-1.129 -1.292,-0.953 -0.436,0.136 -0.617,0.636 -0.849,1.03 -0.14,0.24 -0.393,0.461 -0.647,0.531 0.772,5.002 1.331,10.036 1.633,15.088 0.036,0.614 0.032,1.322 -0.433,1.725 -0.82,0.709 -2.045,-0.227 -2.569,-1.176 -1.207,-2.187 -1.45,-4.695 -1.483,-7.148 -0.028,-2.058 0.507,-4.688 -0.543,-6.563 -0.253,-0.452 -0.73,-0.911 -1.221,-0.743 -0.621,0.213 -0.548,1.097 -0.431,1.743 0.328,1.83 -0.032,3.774 -0.993,5.365 -0.126,0.207 -0.267,0.414 -0.471,0.544 -0.512,0.327 -1.211,0.042 -1.637,-0.391 -0.797,-0.808 -1.028,-2.011 -1.1,-3.143 -0.072,-1.133 -0.026,-2.299 -0.414,-3.366 -0.045,-0.126 -0.103,-0.257 -0.214,-0.332 -0.271,-0.182 -0.628,0.09 -0.77,0.384 -0.142,0.293 -0.215,0.651 -0.489,0.829 -0.338,0.221 -0.82,0.024 -1.046,-0.31 -0.227,-0.335 -0.264,-0.757 -0.294,-1.16 -0.061,-0.814 -0.118,-1.628 -0.171,-2.443 -0.006,-0.084 -0.01,-0.169 -0.015,-0.253 -4.186,1.054 -7.013,1.787 -7.013,1.787 0,0 -22.487,18.739 -31.857,29.351 -9.37,10.612 -18.74,0.632 -31.858,0.008 -13.117,-0.625 -48.723,38.103 -54.345,38.103 -5.621,0 -24.361,-14.991 -43.101,-16.865 -15.907,-1.591 -21.016,-9.932 -32.512,-15.856 -0.062,2.735 -0.366,5.48 -1.153,7.968 -0.163,0.517 -0.383,1.054 -0.827,1.365 -0.789,0.551 -1.961,0.098 -2.489,-0.706 -0.528,-0.805 -0.573,-1.826 -0.548,-2.788 0.025,-0.962 0.098,-1.956 -0.242,-2.856 -0.116,-0.307 -0.3,-0.617 -0.605,-0.739 -0.644,-0.258 -1.247,0.455 -1.516,1.094 -1.318,3.135 -0.738,6.713 -1.255,10.074 -0.093,0.607 -0.244,1.248 -0.688,1.673 -0.786,0.754 -2.177,0.443 -2.902,-0.37 -0.725,-0.813 -0.944,-1.948 -1.079,-3.029 -0.316,-2.522 -0.33,-5.081 -0.042,-7.606 -0.631,-0.409 -1.392,0.397 -1.524,1.137 -0.133,0.74 -0.053,1.605 -0.595,2.128 -0.671,0.647 -1.885,0.234 -2.372,-0.561 -0.487,-0.796 -0.458,-1.792 -0.414,-2.724 0.044,-0.932 0.072,-1.927 -0.415,-2.723 -0.119,-0.192 -0.277,-0.376 -0.492,-0.446 -0.406,-0.132 -0.815,0.185 -1.085,0.516 -2.184,2.671 -1.119,6.527 -1.12,9.648 -0.002,4.02 0.014,8.04 0.046,12.059 0.017,2.114 -0.035,4.438 -1.432,6.023 -0.333,0.377 -0.757,0.708 -1.254,0.779 -1.451,0.21 -2.212,-1.648 -2.435,-3.097 -1.13,-7.353 -1.768,-14.781 -1.907,-22.219 -0.02,-1.072 -0.039,-2.183 -0.502,-3.15 -0.463,-0.966 -1.511,-1.743 -2.561,-1.531 -1.184,0.24 -1.818,1.563 -1.957,2.762 -0.139,1.2 0.026,2.453 -0.378,3.591 -0.404,1.138 -1.721,2.104 -2.794,1.549 -0.922,-0.477 -1.081,-1.705 -1.124,-2.743 -0.083,-1.968 -0.165,-3.937 -0.247,-5.906 -0.054,-1.272 -0.418,-2.906 -1.682,-3.063 -0.899,-0.112 -1.649,0.66 -2.152,1.414 -1.727,2.587 -2.562,5.999 -1.981,9.081 0.582,3.084 0.546,5.994 0.109,9.178 -0.11,0.802 -0.251,1.626 -0.679,2.313 -0.428,0.688 -1.214,1.213 -2.016,1.1 -0.904,-0.129 -1.513,-0.977 -1.934,-1.787 -2.234,-4.295 -2.228,-9.363 -2.171,-14.205 0.026,-2.169 0.052,-4.338 0.077,-6.507 -1.529,0.25 -2.416,0.42 -2.416,0.42 V -1.937 h 565 z" />
          </g>
          <g
             id="g1105">
            <g
               id="g1107" />
            <g
               id="g1155">
              <g
                 style="opacity:0.5"
                 id="g1153"
                 clip-path="url(#clipPath1111)">
                <g
                   id="g1115"
                   transform="translate(472.8519,219.0282)">
                  <path
                     inkscape:connector-curvature="0"
                     id="path1113"
                     style="fill:#e09686;fill-opacity:1;fill-rule:nonzero;stroke:none"
                     d="m 0,0 c 0,0 -68.569,-25.3 -136.101,-33.131 -33.716,-3.91 -46.081,13.855 -77.696,0 -31.616,-13.855 -24.177,-23.129 -46.494,-23.311 -22.316,-0.182 -33.475,-9.82 -70.669,-9.82 -37.195,0 -26.037,17.469 -92.987,9.82 -16.259,-1.858 -34.405,0 -34.405,0 V 0 Z" />
                </g>
                <g
                   id="g1119"
                   transform="translate(584.1985,156.0321)">
                  <path
                     inkscape:connector-curvature="0"
                     id="path1117"
                     style="fill:#e09686;fill-opacity:1;fill-rule:nonzero;stroke:none"
                     d="m 0,0 c 0,0 -2.391,3.098 -14.347,4.647 -11.957,1.549 -28.695,-8.64 -31.087,-7.676 -2.391,0.964 -19.958,3.886 -19.958,3.886 0,0 -5.548,-2.397 -9.534,-3.95 -3.985,-1.554 -11.956,8.503 -11.956,8.503 0,0 -15.941,-2.507 -23.912,-0.602 -7.971,1.905 -13.551,1.388 -19.927,6.552 -6.377,5.164 -31.086,1.549 -38.26,-2.582 -7.174,-4.131 -19.13,-7.945 -25.507,-3.456 -6.376,4.489 -13.55,8.62 -15.144,11.202 -1.594,2.581 -4.61,10.843 -16.254,13.941 -11.644,3.098 -10.954,11.877 -10.954,11.877 0,0 -27.345,20.654 -25.177,20.654 L 0,62.996 Z" />
                </g>
                <g
                   id="g1123"
                   transform="translate(0,119.6964)">
                  <path
                     inkscape:connector-curvature="0"
                     id="path1121"
                     style="fill:#c98273;fill-opacity:1;fill-rule:nonzero;stroke:none"
                     d="m 0,0 c 0,0 31,2.159 39,6.046 13.194,6.411 36,-6.478 42,0 6,6.478 24,34.646 24,34.646 l 58,58.64 H 0 Z" />
                </g>
                <g
                   id="g1127"
                   transform="translate(92.3333,160.3882)">
                  <path
                     inkscape:connector-curvature="0"
                     id="path1125"
                     style="fill:#c98273;fill-opacity:1;fill-rule:nonzero;stroke:none"
                     d="m 0,0 c 0,0 52,1.2 55.333,2.496 3.334,1.296 13.334,9.933 21.334,6.91 8,-3.023 14.91,-4.525 19.333,-4.384 8.865,0.281 14.333,10.43 24.333,11.942 9.182,1.388 33.795,39.517 89.397,41.676 H 0 Z" />
                </g>
                <g
                   id="g1131"
                   transform="translate(242,219.0282)">
                  <path
                     inkscape:connector-curvature="0"
                     id="path1129"
                     style="fill:#c98273;fill-opacity:1;fill-rule:nonzero;stroke:none"
                     d="m 0,0 c 0,0 49.333,-21.378 60.851,-18.139 14.301,4.022 22.793,0.382 27.276,-3.033 2.522,-1.921 6.231,-3.009 10.124,-3.009 h 45.158 l 29.99,-11.449 c 0,0 12.101,-7.126 23.851,-7.126 11.75,0 63.998,7.126 63.998,7.126 L 307,-42.756 323,0 Z" />
                </g>
                <g
                   id="g1135"
                   transform="translate(0,147.7684)">
                  <path
                     inkscape:connector-curvature="0"
                     id="path1133"
                     style="fill:#bf6e5d;fill-opacity:1;fill-rule:nonzero;stroke:none"
                     d="M 0,0 C 0,0 1,-8.638 28.333,-8.638 36.471,-8.638 37,-4.319 45,-2.159 53,0 53.667,-0.432 57.667,0 61.667,0.432 71,1.728 71,5.614 c 0,3.887 9.333,9.07 14,9.934 4.667,0.863 7.333,5.109 7.333,5.109 L 242,71.26 H 0 Z" />
                </g>
                <g
                   id="g1139"
                   transform="translate(800,84.1615)">
                  <path
                     inkscape:connector-curvature="0"
                     id="path1137"
                     style="fill:#bf6e5d;fill-opacity:1;fill-rule:nonzero;stroke:none"
                     d="m 0,0 h -18.066 c 0,0 -1.72,-3.344 -13.764,-6.688 -12.044,-3.343 -24.088,3.344 -29.25,0 -2.032,-1.316 -5.131,-0.559 -8.142,0.843 -7.084,3.297 -16.218,4.13 -24.341,2.071 -0.069,-0.017 -0.138,-0.035 -0.207,-0.052 -6.882,-1.747 -30.97,-4.941 -36.132,0 -5.161,4.941 -36.131,6.055 -39.572,11.628 -3.441,5.573 -6.882,15.605 -15.485,26.193 -8.603,10.589 -24.877,9.246 -29.25,22.85 -2.133,6.637 -17.205,27.865 -17.205,27.865 0,0 -13.143,-5.573 -22.917,0 -9.774,5.573 -0.737,16.719 -19.02,17.833 -18.282,1.115 -60.142,0 -60.142,0 0,0 -7.662,-1.114 -37.959,4.459 -30.297,5.573 -63.112,16.585 -63.112,16.585 l -34.286,11.28 H 0 Z" />
                </g>
                <g
                   id="g1143"
                   transform="translate(800,101.7735)">
                  <path
                     inkscape:connector-curvature="0"
                     id="path1141"
                     style="fill:#aa6253;fill-opacity:1;fill-rule:nonzero;stroke:none"
                     d="M 0,0 C 0,0 -5,-9.069 -19,-3.887 -33,1.296 -10,8.422 -33,6.478 -56,4.535 -59,-6.919 -70,-5.403 c -11,1.516 -17,14.479 -32,12.209 -15,-2.271 -27,2.911 -33,8.094 -6,5.182 -6,14.252 -26,23.969 -20,9.717 -16,24.417 -20,30.023 -4,5.607 -6,4.959 -16,12.733 -10,7.774 -21,18.139 -24,20.082 -3,1.944 -60.578,6.478 -59.789,8.422 0.789,1.943 -57.942,7.126 -57.942,7.126 H 0 Z" />
                </g>
                <g
                   id="g1147"
                   transform="translate(800,219.0282)">
                  <path
                     inkscape:connector-curvature="0"
                     id="path1145"
                     style="fill:#804538;fill-opacity:1;fill-rule:nonzero;stroke:none"
                     d="m 0,0 h -235 c 0,0 16.667,-6.91 20,-7.774 3.333,-0.864 12,-5.614 17.333,-7.774 0.952,-0.385 2.549,-0.631 4.619,-0.778 0.03,-0.324 0.06,-0.649 0.09,-0.973 0.043,-0.46 0.101,-0.949 0.529,-1.317 0.427,-0.368 1.366,-0.522 1.846,-0.182 0.278,0.197 0.318,0.486 0.363,0.751 0.091,0.535 0.281,1.06 0.527,1.573 0.899,-0.02 1.848,-0.031 2.845,-0.032 -0.13,-1.256 -0.003,-2.523 0.392,-3.756 0.104,-0.324 0.282,-0.69 0.755,-0.815 0.89,-0.235 1.532,0.557 1.81,1.153 0.233,0.502 0.541,0.989 0.918,1.452 0.109,0.134 0.24,0.275 0.457,0.33 0.554,0.14 0.957,-0.355 1.043,-0.737 0.221,-0.976 0.27,-1.968 0.147,-2.952 -0.091,-0.726 -0.266,-1.489 0.18,-2.157 0.447,-0.668 1.824,-1.134 2.725,-0.699 0.609,0.294 0.733,0.837 0.941,1.31 0.208,0.473 0.726,0.996 1.483,0.963 0.266,-0.011 0.513,-0.094 0.732,-0.193 2.159,-0.976 1.652,-3.197 1.668,-4.662 0.022,-1.939 -0.737,-3.879 0.895,-5.663 0.174,-0.19 0.384,-0.379 0.691,-0.474 1.006,-0.314 1.924,0.526 2.239,1.22 0.539,1.184 0.875,2.407 1,3.639 0.061,0.6 0.098,1.25 0.681,1.719 0.583,0.468 1.951,0.543 2.319,-0.009 0.103,-0.155 0.11,-0.329 0.113,-0.498 0.079,-4.497 -1.065,-9.101 0.827,-13.428 0.315,-0.722 0.912,-1.542 2.057,-1.654 0.897,-0.089 1.764,0.336 2.166,0.863 0.402,0.527 0.441,1.135 0.463,1.723 0.147,3.825 -0.083,7.656 -0.687,11.462 -0.101,0.634 -0.207,1.294 0.137,1.891 0.344,0.598 1.293,1.102 2.256,0.97 2.875,-0.394 1.079,-5.855 1.386,-7.14 0.125,-0.52 0.353,-1.084 1.02,-1.384 0.186,-0.084 0.41,-0.143 0.635,-0.125 0.395,0.031 0.651,0.28 0.831,0.51 0.533,0.682 0.888,1.423 1.042,2.181 0.103,0.5 0.258,1.126 1.008,1.264 0.586,0.108 1.189,-0.189 1.458,-0.543 0.452,-0.595 0.704,-1.399 0.712,-2.057 0.037,-2.994 -1.115,-6.008 -0.319,-8.958 0.633,-2.346 3.076,-1.795 4.628,-0.187 1.338,1.386 1.232,3.196 1.277,4.767 0.045,1.603 0.296,3.204 0.75,4.78 0.165,0.573 0.834,1.313 1.645,1.06 0.41,-0.128 0.55,-0.454 0.645,-0.742 0.215,-0.652 0.43,-1.303 0.645,-1.955 0.128,-0.387 0.401,-0.861 1.012,-0.885 0.448,-0.018 0.806,0.233 1.049,0.477 1.195,1.204 1.332,2.716 1.255,4.147 -0.043,0.793 -0.131,1.624 0.382,2.345 1.402,1.969 4.396,0.752 5.057,-0.762 0.62,-1.42 0.073,-2.932 0.343,-4.376 0.044,-0.236 0.128,-0.498 0.432,-0.631 0.733,-0.324 1.46,0.395 2.205,0.708 0.736,0.309 1.841,0.159 2.323,-0.317 0.787,-0.779 -0.114,-1.981 0.835,-2.68 0.147,-0.108 0.342,-0.198 0.563,-0.211 0.52,-0.033 0.863,0.333 1.061,0.645 0.521,0.82 0.971,1.658 1.347,2.51 0.182,0.412 0.359,0.843 0.796,1.166 0.436,0.322 1.223,0.491 1.774,0.255 0.56,-0.24 0.623,-0.746 0.628,-1.181 0.03,-2.406 0.059,-4.812 0.089,-7.219 0.011,-0.864 0.05,-1.789 0.824,-2.493 0.774,-0.704 2.576,-0.989 3.427,-0.323 0.305,0.239 0.433,0.549 0.545,0.85 0.444,1.195 0.76,2.409 0.946,3.631 0.083,0.551 0.145,1.115 0.487,1.622 0.663,0.982 2.962,1.413 3.387,0.051 0.186,-0.597 -0.147,-1.217 -0.023,-1.821 0.098,-0.475 0.801,-0.994 1.464,-0.781 0.402,0.13 0.531,0.454 0.616,0.74 0.168,0.566 0.337,1.132 0.505,1.697 0.043,0.147 0.095,0.303 0.261,0.406 0.283,0.177 0.784,0.108 1.052,-0.079 0.268,-0.186 0.36,-0.449 0.43,-0.699 0.377,-1.349 0.404,-2.738 0.079,-4.092 -0.331,-1.376 -1.024,-2.749 -0.745,-4.13 0.086,-0.43 0.386,-0.929 1.045,-1.009 0.874,-0.107 1.424,0.579 1.67,1.133 0.253,0.572 0.507,1.145 0.761,1.718 0.12,0.272 0.278,0.575 0.671,0.699 0.661,0.21 1.369,-0.239 1.685,-0.669 0.956,-1.302 0.484,-2.936 0.544,-4.341 0.068,-1.625 -0.105,-3.255 0.223,-4.872 0.195,-0.962 0.565,-1.909 1.1,-2.814 0.208,-0.352 0.487,-0.729 1.022,-0.876 0.644,-0.177 1.417,0.073 1.805,0.45 0.387,0.378 0.477,0.847 0.536,1.299 0.545,4.218 -0.749,8.684 1.925,12.546 0.262,0.379 0.967,0.804 1.422,0.511 0.657,-0.421 0.566,-2.315 0.637,-2.883 0.041,-0.336 0.098,-0.695 0.433,-0.953 0.571,-0.437 1.73,-0.346 2.357,0.057 0.627,0.403 0.829,1.007 0.884,1.578 0.117,1.216 -0.295,2.425 -0.396,3.642 -0.102,1.216 0.166,2.529 1.412,3.442 2.353,1.723 5.642,0.608 6.06,-1.39 0.197,-0.941 0.394,-1.881 0.591,-2.822 0.074,-0.356 0.156,-0.726 0.458,-1.027 0.301,-0.302 0.89,-0.516 1.416,-0.402 0.582,0.126 0.825,0.562 0.993,0.944 0.317,0.724 0.634,1.448 0.952,2.172 0.206,0.471 0.708,1.059 1.437,0.929 0.45,-0.08 0.666,-0.407 0.783,-0.7 0.732,-1.848 -0.105,-3.832 0.506,-5.699 0.082,-0.251 0.226,-0.527 0.583,-0.637 0.65,-0.201 1.283,0.297 1.555,0.729 0.943,1.502 1.222,3.128 1.252,4.76 2.038,-1.086 4.165,-2.116 7.349,-2.804 1.266,-0.273 2.398,-0.34 3.46,-0.288 0.032,-2.667 -0.213,-5.366 -0.193,-8.008 0.004,-0.578 0.016,-1.177 0.4,-1.698 0.384,-0.522 1.255,-0.94 2.13,-0.828 1.287,0.167 1.659,1.224 1.76,2.071 0.258,2.147 0.542,4.116 1.375,6.175 0.277,0.684 0.372,2.042 0.634,3.364 2.525,0.455 5.398,0.591 9.523,-0.814 -0.374,-3.01 -1.07,-6.024 -0.514,-9.014 0.186,-0.997 0.95,-2.228 2.5,-2.203 1.234,0.02 2.031,0.887 2.196,1.68 0.434,2.098 0.657,4.126 1.287,6.224 0.077,0.257 0.168,0.52 0.329,0.758 0.891,-0.411 1.829,-0.773 2.806,-1.088 0.214,-0.189 0.511,-0.306 0.817,-0.25 0.81,-0.236 1.639,-0.449 2.49,-0.629 0.292,-2.955 0.463,-5.865 -0.428,-8.822 -0.305,-1.012 -0.703,-2.043 -0.46,-3.062 0.243,-1.02 1.33,-2.041 2.905,-2.191 1.793,-0.171 3.416,0.861 3.919,1.989 0.504,1.128 0.206,2.329 0.067,3.5 -0.251,2.106 0.03,4.238 0.827,6.287 0.18,0.462 0.419,0.93 0.768,1.347 1.412,-0.077 2.827,-0.108 4.229,-0.102 0.165,-0.677 0.174,-1.43 0.266,-1.856 0.148,-0.684 0.435,-1.377 1.078,-1.929 0.643,-0.552 1.701,-0.939 2.759,-0.849 0.96,0.081 1.769,0.537 2.248,1.081 0.479,0.545 0.675,1.172 0.826,1.791 0.172,0.705 0.324,1.411 0.466,2.118 7.129,0.612 12.53,1.791 12.53,1.791 z" />
                </g>
                <g
                   id="g1151"
                   transform="translate(565,219.0282)">
                  <path
                     inkscape:connector-curvature="0"
                     id="path1149"
                     style="fill:#804538;fill-opacity:1;fill-rule:nonzero;stroke:none"
                     d="m 0,0 h -565 v -37.633 c 0,0 0.888,0.11 2.416,0.272 -0.025,-1.405 -0.051,-2.811 -0.077,-4.216 -0.057,-3.136 -0.063,-6.419 2.171,-9.202 0.421,-0.525 1.03,-1.074 1.934,-1.157 0.802,-0.074 1.588,0.266 2.016,0.712 0.428,0.445 0.569,0.979 0.679,1.499 0.437,2.062 0.473,3.947 -0.109,5.945 -0.581,1.997 0.254,4.207 1.981,5.883 0.503,0.488 1.253,0.989 2.152,0.916 1.264,-0.102 1.628,-1.16 1.682,-1.984 0.082,-1.276 0.164,-2.551 0.247,-3.827 0.043,-0.672 0.202,-1.467 1.124,-1.776 1.073,-0.36 2.39,0.266 2.794,1.003 0.404,0.738 0.239,1.549 0.378,2.326 0.139,0.777 0.773,1.634 1.957,1.79 1.05,0.137 2.098,-0.366 2.561,-0.992 0.463,-0.626 0.482,-1.346 0.502,-2.04 0.139,-4.819 0.777,-9.631 1.907,-14.395 0.223,-0.938 0.984,-2.142 2.435,-2.006 0.497,0.047 0.921,0.26 1.254,0.505 1.397,1.027 1.449,2.532 1.432,3.901 -0.032,2.604 -0.048,5.209 -0.046,7.813 10e-4,2.022 -1.064,4.519 1.12,6.25 0.27,0.214 0.679,0.42 1.085,0.334 0.215,-0.045 0.373,-0.164 0.492,-0.289 0.487,-0.515 0.459,-1.16 0.415,-1.764 -0.044,-0.604 -0.073,-1.249 0.414,-1.764 0.487,-0.516 1.701,-0.783 2.372,-0.364 0.542,0.339 0.462,0.899 0.595,1.379 0.132,0.479 0.893,1.001 1.524,0.736 -0.288,-1.636 -0.274,-3.293 0.042,-4.927 0.135,-0.7 0.355,-1.436 1.079,-1.963 0.725,-0.526 2.116,-0.727 2.902,-0.239 0.444,0.275 0.595,0.69 0.688,1.084 0.517,2.177 -0.063,4.495 1.255,6.526 0.269,0.414 0.872,0.875 1.516,0.708 0.305,-0.079 0.489,-0.279 0.605,-0.478 0.34,-0.583 0.267,-1.227 0.242,-1.851 -0.025,-0.623 0.02,-1.284 0.548,-1.805 0.528,-0.521 1.7,-0.815 2.489,-0.458 0.444,0.201 0.664,0.55 0.827,0.884 0.787,1.612 1.091,3.391 1.153,5.162 11.496,-3.837 16.605,-9.241 32.512,-10.271 18.74,-1.214 37.48,-10.926 43.102,-10.926 5.621,0 41.227,25.089 54.344,24.684 13.118,-0.404 22.488,-6.869 31.858,0.005 9.37,6.874 31.857,19.014 31.857,19.014 0,0 2.827,0.475 7.014,1.158 0.005,-0.055 0.008,-0.11 0.014,-0.164 0.053,-0.528 0.11,-1.056 0.171,-1.583 0.03,-0.261 0.068,-0.535 0.294,-0.751 0.226,-0.216 0.708,-0.344 1.046,-0.201 0.274,0.115 0.347,0.347 0.489,0.537 0.142,0.19 0.499,0.367 0.77,0.249 0.111,-0.049 0.169,-0.134 0.214,-0.215 0.388,-0.691 0.342,-1.447 0.414,-2.181 0.072,-0.733 0.303,-1.512 1.1,-2.036 0.426,-0.28 1.125,-0.465 1.637,-0.253 0.204,0.084 0.345,0.218 0.471,0.352 0.961,1.031 1.321,2.29 0.993,3.475 -0.116,0.419 -0.19,0.992 0.431,1.13 0.491,0.109 0.968,-0.189 1.221,-0.482 1.05,-1.214 0.515,-2.918 0.543,-4.251 0.033,-1.589 0.276,-3.214 1.483,-4.631 0.524,-0.614 1.749,-1.221 2.569,-0.761 0.465,0.26 0.469,0.719 0.433,1.117 -0.303,3.276 -0.862,6.541 -1.635,9.784 0.255,0.046 0.509,0.178 0.649,0.334 0.232,0.256 0.413,0.58 0.849,0.668 0.565,0.113 1.08,-0.26 1.292,-0.618 0.212,-0.357 0.339,-0.778 0.833,-0.988 0.6,-0.256 1.451,-0.039 1.891,0.328 0.44,0.368 0.589,0.842 0.791,1.288 0.202,0.447 0.507,0.913 1.122,1.153 0.668,0.26 1.619,0.157 2.12,-0.23 0.524,-0.406 0.515,-0.985 0.642,-1.508 0.127,-0.522 0.582,-1.115 1.396,-1.154 0.703,-0.034 1.283,0.386 1.485,0.823 0.202,0.438 0.15,0.907 0.268,1.357 0.17,0.65 0.784,1.296 1.751,1.499 3.716,0.781 1.864,-4.319 3.972,-5.164 0.392,-0.158 0.954,-0.217 1.28,-0.006 0.149,0.096 0.22,0.231 0.268,0.363 0.282,0.783 -1.169,4.518 1.168,4.636 0.631,0.032 1.085,-0.397 1.238,-0.795 0.124,-0.323 0.229,-0.729 0.719,-0.829 0.58,-0.119 1.051,0.307 1.305,0.665 0.31,0.436 0.62,0.873 0.931,1.309 0.176,0.249 0.379,0.516 0.759,0.636 0.511,0.163 1.131,-0.01 1.571,-0.245 0.441,-0.234 0.812,-0.535 1.332,-0.687 0.97,-0.284 3.18,0.691 4.038,1.032 0.916,0.365 9.646,1.265 15.92,1.812 0.075,-0.227 0.15,-0.453 0.224,-0.68 0.17,-0.513 0.67,-1.169 1.452,-1.034 0.461,0.079 0.712,0.417 1.156,0.53 0.689,0.176 1.402,-0.29 1.558,-0.759 0.155,-0.469 -0.007,-0.964 0.152,-1.433 0.159,-0.468 0.884,-0.93 1.568,-0.747 0.633,0.17 0.711,0.717 0.747,1.16 0.036,0.443 0.309,1.001 0.993,1.026 0.228,0.008 0.449,-0.052 0.649,-0.124 2.538,-0.915 2.143,-3.79 2.349,-5.364 0.054,-0.41 0.153,-0.873 0.671,-1.111 0.599,-0.276 1.489,-0.083 1.952,0.287 0.462,0.37 0.607,0.861 0.738,1.329 0.364,1.312 0.729,2.624 1.093,3.935 0.127,0.458 0.216,2.72 1.76,2.009 0.431,-0.198 0.602,-0.553 0.746,-0.882 0.264,-0.606 0.529,-1.211 0.794,-1.816 0.225,-0.514 0.765,-1.156 1.563,-1.022 0.325,0.055 0.561,0.233 0.753,0.412 0.49,0.456 0.836,0.975 1.012,1.519 0.103,0.318 0.164,0.666 0.502,0.906 0.551,0.391 1.61,0.282 2.184,-0.095 0.574,-0.376 0.774,-0.925 0.892,-1.449 0.355,-1.57 0.209,-3.201 0.967,-4.71 0.222,-0.442 0.744,-0.95 1.446,-0.855 0.563,0.076 0.817,0.496 0.961,0.857 0.715,1.789 1.062,3.639 1.035,5.486 -0.013,0.87 0.05,1.63 0.34,2.354 4.483,-1.755 24.172,-9.201 32.956,-8.129 9.946,1.214 32.668,8.498 32.668,8.498 l 4.163,0.701 c 0,-0.197 0.006,-0.395 0.028,-0.594 0.03,-0.278 0.067,-0.569 0.294,-0.806 0.228,-0.237 0.71,-0.396 1.1,-0.278 0.401,0.123 0.512,0.46 0.485,0.747 -0.027,0.286 -0.137,0.583 0.015,0.853 0.152,0.269 0.734,0.456 1.044,0.251 0.124,-0.082 0.167,-0.201 0.197,-0.315 0.353,-1.311 -0.179,-2.68 0.253,-3.981 0.126,-0.379 0.512,-0.824 1.104,-0.772 0.481,0.042 0.728,0.389 0.87,0.69 0.475,1.006 0.76,2.05 0.846,3.101 0.046,0.569 0.134,1.251 0.912,1.515 0.741,0.251 1.697,-0.083 2.078,-0.565 0.381,-0.482 0.34,-1.053 0.277,-1.593 -0.15,-1.281 -0.376,-2.573 -0.096,-3.845 0.102,-0.463 0.287,-0.94 0.768,-1.289 0.481,-0.348 1.332,-0.52 1.948,-0.276 0.271,0.108 0.465,0.28 0.644,0.45 1.44,1.373 2.355,2.976 2.642,4.626 0.14,0.806 0.29,1.784 1.424,2.128 2.964,0.899 3.747,-1.541 4.064,-2.693 0.158,-0.577 0.725,-1.218 1.629,-1.224 0.594,-0.005 1.115,0.285 1.381,0.629 0.266,0.343 0.33,0.735 0.402,1.116 0.156,0.821 0.371,1.636 0.645,2.444 0.246,0.722 0.761,1.575 1.891,1.678 1.071,0.098 1.936,-0.567 2.36,-1.211 0.451,-0.687 0.675,-1.436 0.65,-2.182 -0.016,-0.493 -0.132,-1.009 0.173,-1.461 0.304,-0.451 1.26,-0.76 1.841,-0.442 0.288,0.157 0.391,0.411 0.478,0.649 0.156,0.426 0.312,0.852 0.468,1.279 0.078,0.212 0.179,0.446 0.467,0.559 0.335,0.132 0.795,0.031 1.057,-0.158 0.261,-0.19 0.373,-0.445 0.477,-0.69 0.93,-2.196 -0.546,-4.765 0.96,-6.818 0.119,-0.162 0.282,-0.331 0.546,-0.388 0.365,-0.078 0.741,0.09 1.014,0.266 1.801,1.163 2.171,2.937 2.444,4.574 l 0.532,3.187 c 0.134,0.801 0.284,1.634 0.948,2.315 0.664,0.682 2.005,1.158 3.17,0.876 1.427,-0.347 1.784,-1.511 2.137,-2.471 0.354,-0.96 1.406,-2.085 2.901,-1.896 3.084,0.388 0.931,6.154 3.959,5.922 0.841,-0.065 1.142,-0.744 1.246,-1.289 0.079,-0.409 0.157,-0.817 0.235,-1.225 0.316,-1.648 3.098,-2.411 4.04,-0.537 0.331,0.66 0.456,1.377 1.029,1.963 0.276,0.282 0.72,0.543 1.235,0.519 0.626,-0.028 1.015,-0.443 1.269,-0.815 1.151,-1.687 1.752,-3.53 1.751,-5.375 0,-0.664 0.033,-1.467 0.92,-1.799 0.753,-0.283 1.77,-0.026 2.297,0.422 0.528,0.448 0.682,1.031 0.792,1.59 0.245,1.257 0.345,2.527 0.299,3.793 -0.024,0.655 -0.081,1.333 0.293,1.941 0.374,0.609 1.327,1.126 2.323,1.016 0.942,-0.105 1.563,-0.719 1.757,-1.325 0.28,-0.87 -0.191,-1.773 0.318,-2.601 0.223,-0.363 0.469,-0.729 0.87,-1.021 0.401,-0.292 0.987,-0.503 1.588,-0.47 3.125,0.174 0.905,5.99 5.964,5.063 0.897,-0.165 1.537,-0.703 1.818,-1.279 0.28,-0.576 0.26,-1.192 0.237,-1.796 -0.06,-1.591 -0.119,-3.183 -0.179,-4.774 -0.02,-0.511 -0.031,-1.045 0.318,-1.503 0.35,-0.458 1.184,-0.804 1.928,-0.634 0.267,0.061 0.493,0.18 0.698,0.306 1.617,0.992 2.243,2.489 2.421,3.927 0.179,1.437 -0.017,2.891 0.291,4.32 0.149,0.687 0.426,1.382 1.053,1.945 2.167,1.942 4.792,0.323 4.886,-1.493 0.056,-1.066 0.761,-2.528 2.382,-2.337 1.25,0.91 1.28,2.246 1.626,3.444 0.345,1.197 1.473,2.544 3.353,2.579 1.937,0.036 3.204,-1.388 3.274,-2.643 0.069,-1.255 -0.587,-2.501 -0.393,-3.751 0.195,-1.249 1.809,-2.585 3.7,-2.308 2.302,0.337 2.415,2.377 2.585,3.903 0.335,3.02 3.268,5.794 7.287,7.307 z" />
                </g>
              </g>
            </g>
          </g>
          <g
             transform="translate(544.1965,543.6798)"
             id="g1157">
            <path
               inkscape:connector-curvature="0"
               id="path1159"
               style="fill:#d16042;fill-opacity:1;fill-rule:nonzero;stroke:none"
               d="M 0,0 -0.995,1.431 C -1.329,1.904 -1.681,2.354 -2.018,2.809 L -3.095,4.125 C -3.484,4.534 -3.853,4.957 -4.255,5.34 -4.662,5.718 -5.043,6.119 -5.48,6.447 -5.892,6.808 -6.342,7.106 -6.786,7.405 -7.249,7.667 -7.685,7.973 -8.168,8.172 -8.634,8.409 -9.125,8.572 -9.61,8.727 L -10.351,8.91 -11.1,9.024 c -0.501,0.055 -1.003,0.082 -1.507,0.065 -0.504,-0.024 -1.006,-0.086 -1.506,-0.18 -0.499,-0.104 -0.993,-0.238 -1.481,-0.404 -0.485,-0.175 -0.974,-0.349 -1.447,-0.573 -0.476,-0.214 -0.94,-0.463 -1.395,-0.73 -0.453,-0.271 -0.899,-0.557 -1.323,-0.871 -0.415,-0.3 -0.861,-0.668 -1.182,-0.954 l -1.71,-1.526 -0.748,2.153 -0.519,1.495 -0.599,1.449 c -0.232,0.459 -0.438,0.94 -0.69,1.386 -0.264,0.436 -0.495,0.9 -0.788,1.309 -0.268,0.434 -0.576,0.828 -0.892,1.216 -0.321,0.38 -0.66,0.747 -1.026,1.075 -0.187,0.159 -0.367,0.331 -0.559,0.483 -0.2,0.14 -0.397,0.286 -0.592,0.437 -0.409,0.269 -0.825,0.535 -1.274,0.739 -0.217,0.119 -0.449,0.204 -0.681,0.292 -0.229,0.097 -0.466,0.176 -0.708,0.238 -0.24,0.074 -0.482,0.141 -0.731,0.183 -0.247,0.054 -0.494,0.116 -0.748,0.143 -1.011,0.16 -2.064,0.164 -3.122,0.068 -1.063,-0.081 -2.125,-0.299 -3.186,-0.57 -1.057,-0.286 -2.109,-0.638 -3.139,-1.083 1.739,1.435 3.821,2.465 6.071,3.081 0.564,0.155 1.144,0.258 1.732,0.332 0.587,0.077 1.186,0.117 1.789,0.107 0.603,0 1.214,-0.051 1.815,-0.172 0.303,-0.047 0.604,-0.113 0.9,-0.201 0.298,-0.079 0.598,-0.158 0.885,-0.275 0.589,-0.198 1.149,-0.473 1.701,-0.762 0.543,-0.306 1.056,-0.66 1.536,-1.051 0.485,-0.383 0.934,-0.811 1.357,-1.252 0.417,-0.449 0.822,-0.909 1.173,-1.401 0.387,-0.473 0.684,-0.992 1.004,-1.502 0.311,-0.513 0.564,-1.049 0.847,-1.574 0.245,-0.536 0.475,-1.079 0.704,-1.622 l 0.592,-1.651 -2.457,0.628 c 0.528,0.492 0.997,0.828 1.517,1.201 0.51,0.361 1.042,0.688 1.584,0.997 1.091,0.608 2.244,1.13 3.469,1.486 0.615,0.169 1.243,0.298 1.881,0.389 0.64,0.08 1.286,0.118 1.935,0.107 0.65,-0.018 1.296,-0.092 1.936,-0.207 l 0.942,-0.243 0.91,-0.328 c 0.59,-0.254 1.171,-0.524 1.704,-0.865 0.552,-0.311 1.046,-0.701 1.526,-1.093 0.462,-0.414 0.919,-0.827 1.318,-1.288 0.428,-0.436 0.784,-0.926 1.156,-1.397 0.352,-0.486 0.659,-1 0.982,-1.496 0.282,-0.523 0.586,-1.027 0.84,-1.56 0.241,-0.542 0.495,-1.073 0.716,-1.61 z" />
          </g>
          <g
             transform="translate(507.0699,486.2451)"
             id="g1161">
            <path
               inkscape:connector-curvature="0"
               id="path1163"
               style="fill:#d16042;fill-opacity:1;fill-rule:nonzero;stroke:none"
               d="M 0,0 C 0.447,0.647 0.975,1.245 1.564,1.781 1.847,2.065 2.166,2.307 2.485,2.552 2.795,2.813 3.153,3.005 3.492,3.233 3.831,3.462 4.221,3.602 4.589,3.79 4.96,3.973 5.372,4.065 5.768,4.206 6.165,4.349 6.597,4.366 7.016,4.438 7.437,4.532 7.87,4.452 8.301,4.459 8.738,4.476 9.155,4.36 9.579,4.269 l 0.636,-0.147 c 0.204,-0.067 0.395,-0.167 0.593,-0.25 0.384,-0.186 0.805,-0.328 1.16,-0.559 l 1.053,-0.716 c 0.372,-0.222 0.647,-0.532 0.95,-0.819 l 0.894,-0.876 1.516,-1.936 -1.686,-0.057 c 0.253,0.427 0.504,0.751 0.778,1.1 0.277,0.337 0.559,0.668 0.87,0.974 0.291,0.324 0.636,0.6 0.961,0.892 0.334,0.284 0.709,0.528 1.064,0.787 0.389,0.219 0.785,0.428 1.182,0.629 0.425,0.153 0.845,0.318 1.274,0.45 0.446,0.085 0.89,0.173 1.335,0.242 l 1.352,-0.019 c 0.442,-0.055 0.875,-0.169 1.307,-0.254 0.443,-0.061 0.824,-0.29 1.228,-0.445 0.401,-0.169 0.797,-0.336 1.14,-0.592 l 1.059,-0.696 c 0.338,-0.248 0.624,-0.557 0.935,-0.831 0.3,-0.287 0.62,-0.549 0.895,-0.854 0.526,-0.636 1.034,-1.278 1.525,-1.92 -0.651,0.498 -1.285,0.996 -1.901,1.5 -0.327,0.229 -0.669,0.434 -0.998,0.651 -0.337,0.205 -0.651,0.447 -1,0.619 L 26.655,1.638 C 26.318,1.829 25.95,1.923 25.587,2.019 25.221,2.094 24.881,2.285 24.509,2.284 24.145,2.315 23.785,2.378 23.426,2.389 L 22.359,2.302 21.326,2.049 C 20.993,1.921 20.669,1.766 20.341,1.633 L 19.419,1.068 C 19.134,0.838 18.828,0.642 18.554,0.396 18.286,0.142 18,-0.089 17.758,-0.373 17.498,-0.639 17.263,-0.927 17.032,-1.218 16.812,-1.505 16.586,-1.833 16.417,-2.094 L 15.615,-3.328 14.731,-2.151 13.402,-0.382 12.64,0.39 C 12.38,0.638 12.154,0.936 11.859,1.128 L 11.018,1.779 C 10.734,1.993 10.407,2.11 10.104,2.285 9.949,2.362 9.798,2.458 9.638,2.522 L 9.145,2.675 C 8.816,2.779 8.489,2.917 8.14,2.929 7.795,2.951 7.449,3.068 7.097,3.017 6.747,2.981 6.386,3.021 6.034,2.946 5.683,2.869 5.316,2.845 4.968,2.727 4.622,2.606 4.259,2.523 3.918,2.37 3.579,2.217 3.216,2.101 2.889,1.908 2.554,1.733 2.216,1.555 1.893,1.35 1.237,0.953 0.598,0.508 0,0" />
          </g>
          <g
             transform="translate(537.8918,459.8246)"
             id="g1165">
            <path
               inkscape:connector-curvature="0"
               id="path1167"
               style="fill:#d16042;fill-opacity:1;fill-rule:nonzero;stroke:none"
               d="M 0,0 C 0.296,0.48 0.655,0.928 1.065,1.329 1.26,1.542 1.484,1.723 1.709,1.908 1.926,2.103 2.18,2.251 2.421,2.423 2.662,2.598 2.944,2.705 3.208,2.849 3.476,2.988 3.775,3.064 4.063,3.173 4.352,3.285 4.669,3.304 4.977,3.362 5.287,3.434 5.607,3.382 5.926,3.392 6.25,3.408 6.559,3.329 6.874,3.266 7.196,3.215 7.503,3.124 7.787,2.982 8.072,2.849 8.385,2.744 8.648,2.577 L 9.427,2.059 c 0.276,-0.162 0.478,-0.384 0.7,-0.594 l 0.655,-0.638 1.104,-1.401 -1.685,-0.057 c 0.191,0.327 0.374,0.557 0.577,0.815 0.203,0.246 0.411,0.487 0.639,0.711 0.441,0.461 0.951,0.864 1.493,1.228 0.288,0.16 0.583,0.312 0.878,0.456 0.316,0.112 0.628,0.231 0.947,0.326 0.332,0.061 0.663,0.123 0.993,0.17 l 1.003,-0.029 c 0.326,-0.045 0.644,-0.133 0.962,-0.202 0.325,-0.052 0.602,-0.221 0.895,-0.342 0.29,-0.131 0.576,-0.261 0.82,-0.452 l 0.755,-0.524 c 0.239,-0.187 0.439,-0.416 0.656,-0.621 0.209,-0.214 0.433,-0.408 0.621,-0.637 0.361,-0.471 0.705,-0.948 1.031,-1.425 -0.487,0.332 -0.955,0.666 -1.406,1.005 L 20.34,0.282 C 20.096,0.418 19.87,0.58 19.619,0.691 l -0.742,0.325 c -0.238,0.126 -0.496,0.182 -0.749,0.239 -0.254,0.043 -0.49,0.173 -0.744,0.164 -0.25,0.013 -0.495,0.051 -0.738,0.052 L 15.928,1.394 15.237,1.213 14.579,0.922 13.96,0.529 c -0.396,-0.296 -0.787,-0.61 -1.128,-0.99 -0.178,-0.183 -0.338,-0.382 -0.495,-0.582 -0.149,-0.195 -0.306,-0.429 -0.415,-0.591 l -0.82,-1.221 -0.866,1.164 -0.917,1.234 -0.523,0.534 C 8.618,0.248 8.463,0.458 8.265,0.59 L 7.697,1.043 C 7.506,1.193 7.287,1.273 7.084,1.396 6.881,1.53 6.662,1.602 6.44,1.672 6.22,1.748 6,1.849 5.765,1.862 5.532,1.882 5.299,1.97 5.058,1.94 4.82,1.919 4.573,1.957 4.329,1.913 4.086,1.867 3.831,1.86 3.587,1.786 3.345,1.709 3.09,1.659 2.848,1.561 2.606,1.463 2.348,1.391 2.113,1.264 1.872,1.149 1.629,1.032 1.393,0.897 0.917,0.635 0.447,0.341 0,0" />
          </g>
          <g
             transform="translate(103.2087,605.8234)"
             id="g1169">
            <path
               inkscape:connector-curvature="0"
               id="path1171"
               style="fill:#d16042;fill-opacity:1;fill-rule:nonzero;stroke:none"
               d="M 0,0 C -1.042,0.465 -2.119,0.813 -3.192,1.112 -4.272,1.389 -5.353,1.614 -6.436,1.699 -7.514,1.798 -8.587,1.797 -9.618,1.636 -9.877,1.607 -10.13,1.547 -10.381,1.49 -10.636,1.447 -10.883,1.379 -11.127,1.304 -11.374,1.241 -11.616,1.161 -11.849,1.062 -12.086,0.973 -12.323,0.886 -12.545,0.765 -13.004,0.558 -13.429,0.287 -13.847,0.013 l -0.603,-0.447 c -0.197,-0.155 -0.38,-0.33 -0.571,-0.492 -0.374,-0.334 -0.72,-0.709 -1.048,-1.097 -0.323,-0.395 -0.638,-0.797 -0.912,-1.239 -0.3,-0.416 -0.532,-0.891 -0.806,-1.334 -0.259,-0.453 -0.472,-0.941 -0.712,-1.409 l -0.608,-1.478 -0.521,-1.526 -0.728,-2.131 -1.724,1.505 c -0.332,0.29 -0.787,0.662 -1.21,0.969 -0.432,0.321 -0.887,0.612 -1.348,0.889 -0.927,0.545 -1.902,0.996 -2.9,1.324 -0.498,0.17 -1.002,0.306 -1.511,0.412 -0.509,0.095 -1.022,0.158 -1.536,0.183 -0.514,0.017 -1.026,-0.011 -1.537,-0.068 l -0.764,-0.118 -0.755,-0.187 c -0.495,-0.159 -0.995,-0.325 -1.47,-0.567 -0.492,-0.203 -0.935,-0.516 -1.407,-0.785 -0.451,-0.304 -0.91,-0.609 -1.33,-0.976 -0.444,-0.335 -0.833,-0.744 -1.245,-1.13 -0.41,-0.39 -0.784,-0.822 -1.18,-1.238 l -1.095,-1.342 c -0.707,-0.922 -1.379,-1.882 -2.049,-2.861 l 0.603,1.674 c 0.227,0.548 0.484,1.086 0.728,1.634 0.258,0.54 0.57,1.053 0.857,1.585 0.329,0.505 0.642,1.028 1.001,1.522 0.38,0.478 0.741,0.976 1.177,1.419 0.407,0.469 0.871,0.888 1.341,1.31 0.49,0.397 0.993,0.793 1.554,1.109 0.541,0.346 1.133,0.62 1.732,0.878 l 0.926,0.333 0.958,0.245 c 0.649,0.117 1.306,0.192 1.967,0.21 0.659,0.011 1.316,-0.028 1.966,-0.11 0.648,-0.092 1.287,-0.224 1.912,-0.396 1.243,-0.367 2.416,-0.894 3.525,-1.513 0.551,-0.315 1.091,-0.647 1.61,-1.014 0.529,-0.377 1.006,-0.722 1.538,-1.225 l -2.451,-0.626 0.61,1.676 0.718,1.648 c 0.284,0.535 0.539,1.081 0.852,1.604 0.321,0.52 0.626,1.046 1.018,1.528 0.357,0.5 0.767,0.967 1.191,1.423 0.429,0.45 0.885,0.884 1.378,1.274 0.487,0.399 1.009,0.755 1.561,1.067 0.56,0.294 1.128,0.573 1.726,0.775 0.292,0.119 0.596,0.2 0.899,0.28 0.301,0.09 0.605,0.157 0.914,0.205 0.61,0.125 1.231,0.175 1.843,0.176 C -9.15,3.572 -8.541,3.532 -7.944,3.456 -7.346,3.38 -6.756,3.277 -6.183,3.12 -3.894,2.499 -1.775,1.453 0,0" />
          </g>
          <g
             transform="translate(114.93,570.8532)"
             id="g1173">
            <path
               inkscape:connector-curvature="0"
               id="path1175"
               style="fill:#d16042;fill-opacity:1;fill-rule:nonzero;stroke:none"
               d="M 0,0 C 0.403,0.599 0.882,1.153 1.419,1.65 1.677,1.914 1.968,2.138 2.26,2.365 2.543,2.607 2.871,2.786 3.181,2.998 3.492,3.212 3.851,3.342 4.189,3.517 4.53,3.687 4.909,3.775 5.274,3.906 5.639,4.041 6.038,4.058 6.425,4.126 6.814,4.214 7.214,4.142 7.613,4.15 8.017,4.166 8.403,4.061 8.795,3.978 L 9.384,3.844 C 9.573,3.782 9.749,3.691 9.932,3.614 10.288,3.443 10.678,3.312 11.006,3.1 l 0.973,-0.659 c 0.344,-0.204 0.599,-0.489 0.878,-0.754 l 0.825,-0.807 1.396,-1.781 -1.686,-0.057 c 0.235,0.398 0.467,0.695 0.72,1.018 0.256,0.31 0.517,0.615 0.803,0.898 0.555,0.582 1.195,1.089 1.872,1.548 0.359,0.202 0.726,0.394 1.093,0.579 0.394,0.141 0.782,0.293 1.179,0.414 0.413,0.078 0.825,0.159 1.236,0.221 l 1.251,-0.022 c 0.408,-0.052 0.808,-0.159 1.207,-0.239 0.409,-0.058 0.76,-0.27 1.132,-0.415 0.368,-0.158 0.733,-0.314 1.047,-0.552 l 0.971,-0.646 c 0.309,-0.23 0.571,-0.516 0.854,-0.77 0.273,-0.266 0.566,-0.508 0.815,-0.791 0.479,-0.588 0.939,-1.182 1.382,-1.776 -0.603,0.449 -1.189,0.9 -1.757,1.356 -0.302,0.207 -0.616,0.393 -0.919,0.588 -0.31,0.185 -0.598,0.404 -0.919,0.558 L 24.401,1.458 C 24.093,1.63 23.756,1.713 23.425,1.798 23.092,1.863 22.782,2.037 22.444,2.034 22.113,2.059 21.786,2.115 21.461,2.123 L 20.495,2.039 19.561,1.807 18.671,1.427 17.837,0.912 C 17.579,0.702 17.301,0.525 17.053,0.301 16.81,0.07 16.55,-0.14 16.33,-0.399 16.094,-0.64 15.881,-0.902 15.671,-1.167 15.472,-1.428 15.266,-1.728 15.114,-1.96 l -0.805,-1.232 -0.881,1.175 -1.209,1.614 -0.693,0.702 C 11.29,0.525 11.084,0.798 10.817,0.972 L 10.055,1.566 C 9.799,1.761 9.503,1.867 9.229,2.028 9.088,2.098 8.952,2.186 8.807,2.244 L 8.361,2.384 C 8.064,2.48 7.768,2.607 7.452,2.62 7.14,2.641 6.826,2.75 6.506,2.705 6.189,2.673 5.861,2.713 5.54,2.647 5.22,2.579 4.886,2.559 4.568,2.454 4.252,2.346 3.92,2.273 3.608,2.136 3.297,1.999 2.964,1.895 2.664,1.722 2.356,1.564 2.046,1.404 1.748,1.219 1.144,0.861 0.554,0.459 0,0" />
          </g>
        </g>
      </g>
      <g
         id="g1177"
         transform="matrix(0.7480932,0,0,0.75177795,21.213205,572.75652)">
        <g
           clip-path="url(#clipPath1183)"
           id="g1179">
          <g
             id="g1185">
            <g
               id="g1187" />
            <g
               mask="url(#mask1201)"
               id="g1213">
              <g
                 id="g1215">
                <path
                   inkscape:connector-curvature="0"
                   id="path1225"
                   style="fill:url(#linearGradient1223);stroke:none"
                   d="m 166.968,509.162 c -29.2,-4.027 -27.421,-35.273 -27.421,-35.273 v 0 c 0,0 -5.813,17.701 -16.127,14.263 v 0 c -10.315,-3.438 -10.205,-20.131 -10.205,-20.131 v 0 L 62.68,459.884 h 200.639 l -20.714,5.73 c 0,0 -3.057,32.853 -27.504,32.089 v 0 c -21.885,-0.684 -20.907,-20.629 -20.907,-20.629 v 0 c 0,0 -4.657,32.276 -24.544,32.277 v 0 c -0.865,0 -1.758,-0.061 -2.682,-0.189" />
              </g>
            </g>
          </g>
        </g>
      </g>
      <g
         id="g1227"
         transform="matrix(0.7480932,0,0,0.75177795,21.213205,572.75652)">
        <g
           clip-path="url(#clipPath1233)"
           id="g1229">
          <g
             id="g1235">
            <g
               id="g1237" />
            <g
               mask="url(#mask1251)"
               id="g1263">
              <g
                 id="g1265">
                <path
                   inkscape:connector-curvature="0"
                   id="path1275"
                   style="fill:url(#linearGradient1273);stroke:none"
                   d="m 501.402,370.826 c 0,0 -3.33,14.076 -17.529,12.462 v 0 c -16.272,-1.848 -15.075,-17.75 -15.075,-17.75 v 0 c 0,0 -3.397,12.494 -19.687,8.875 v 0 C 439.126,372.194 437.277,361.1 437.277,361.1 v 0 c 0,0 -5.559,16.111 -17.751,16.641 v 0 c -17.012,0.74 -24.408,-17.751 -24.408,-17.751 v 0 l -56.582,-6.656 236.464,4.437 -30.107,7.767 c 0,0 0.142,29.954 -22.118,29.954 v 0 c -22.26,0 -21.373,-24.666 -21.373,-24.666" />
              </g>
            </g>
          </g>
        </g>
      </g>
      <g
         id="g1277"
         transform="matrix(0.7480932,0,0,0.75177795,21.213205,572.75652)">
        <g
           clip-path="url(#clipPath1283)"
           id="g1279">
          <g
             id="g1285">
            <g
               id="g1287" />
            <g
               mask="url(#mask1301)"
               id="g1313">
              <g
                 id="g1315">
                <path
                   inkscape:connector-curvature="0"
                   id="path1325"
                   style="fill:url(#linearGradient1323);stroke:none"
                   d="m 730.155,580.157 c -36.123,-0.116 -40.499,-34.498 -40.499,-34.498 v 0 c 0,0 -2.076,13.93 -23.742,13.597 v 0 c -21.487,-0.331 -21.699,-19.597 -21.699,-19.597 v 0 c 0,0 -0.139,27.831 -17.967,28.498 v 0 c -29.335,1.099 -28.086,-29.998 -28.086,-29.998 v 0 c 0,0 -6.75,15.43 -23.248,12.43 v 0 c -16.5,-2.999 -19.667,-17 -19.667,-17 v 0 l -91.63,-8.93 h 334.034 l -32.404,5.931 c 0,0 3.32,49.563 -34.95,49.567 v 0 c -0.049,0 -0.093,0 -0.142,0" />
              </g>
            </g>
          </g>
        </g>
      </g>
    </g>
  </g>
</svg>
